# This file uses centimeters as units for non-parametric coordinates.

mtllib chao.mtl
g default
v -0.608918 0.002572 3.614896
v 0.652593 0.002572 3.614896
v -0.608918 0.200483 3.614896
v 0.652593 0.200483 3.614896
v -0.608918 0.200483 -3.725874
v 0.652593 0.200483 -3.725874
v -0.608918 0.002572 -3.725874
v 0.652593 0.002572 -3.725874
v -0.608918 0.002572 1.656216
v -0.608918 0.200483 1.656216
v 0.652593 0.200483 1.656216
v 0.652593 0.002572 1.656216
v -0.608918 0.002572 0.277786
v -0.608918 0.200483 0.277786
v 0.652593 0.200483 0.277786
v 0.652593 0.002572 0.277786
v -4.907612 0.002572 0.277786
v -4.907612 0.002572 1.656216
v -4.907612 0.200483 1.656216
v -4.907612 0.200483 0.277786
v 4.863527 0.002572 0.277786
v 4.863527 0.002572 1.656216
v 4.863527 0.200483 0.277786
v 4.863527 0.200483 1.656216
vt 0.751928 0.435012
vt 0.810823 0.435012
vt 0.810823 0.563603
vt 0.751928 0.563603
vt 0.687222 0.435012
vt 0.746117 0.435012
vt 0.746117 0.563603
vt 0.687222 0.563603
vt 0.652598 0.435012
vt 0.681411 0.435012
vt 0.681411 0.563603
vt 0.652598 0.563603
vt 0.617974 0.435012
vt 0.646787 0.435012
vt 0.646787 0.563603
vt 0.617974 0.563603
vt 0.591886 0.435012
vt 0.612164 0.435012
vt 0.612164 0.563603
vt 0.591886 0.563603
vt 0.565798 0.435012
vt 0.586076 0.435012
vt 0.586076 0.563603
vt 0.565798 0.563603
vt 0.050977 0.559823
vt 0.050977 0.431231
vt 0.109872 0.431231
vt 0.109872 0.559823
vt 0.030700 0.559823
vt 0.030700 0.431231
vt 0.001887 0.559823
vt 0.001887 0.431231
vt 0.030700 0.001992
vt 0.050977 0.001992
vt 0.050977 0.998008
vt 0.030700 0.998008
vt 0.116516 0.559823
vt 0.116516 0.431231
vt 0.175411 0.431231
vt 0.175411 0.559823
vt 0.195688 0.431231
vt 0.195688 0.559823
vt 0.175411 0.001992
vt 0.195688 0.001992
vt 0.224501 0.431231
vt 0.224501 0.559823
vt 0.195688 0.998008
vt 0.175411 0.998008
vt 0.769956 0.001992
vt 0.898547 0.001992
vt 0.898547 0.130584
vt 0.769956 0.130584
vt 0.816634 0.262955
vt 0.816634 0.134364
vt 0.945225 0.134364
vt 0.945225 0.262955
vt 0.230960 0.001992
vt 0.359551 0.001992
vt 0.359551 0.440177
vt 0.230960 0.440177
vt 0.365709 0.001992
vt 0.494300 0.001992
vt 0.494300 0.440177
vt 0.365709 0.440177
vt 0.629049 0.431231
vt 0.500458 0.431231
vt 0.500458 0.001992
vt 0.629049 0.001992
vt 0.763798 0.431231
vt 0.635207 0.431231
vt 0.635207 0.001992
vt 0.763798 0.001992
vn 0.000000 0.000000 1.000000
vn 0.000000 0.000000 1.000000
vn 0.000000 0.000000 1.000000
vn 0.000000 0.000000 1.000000
vn 0.000000 1.000000 0.000000
vn 0.000000 1.000000 0.000000
vn 0.000000 1.000000 0.000000
vn 0.000000 1.000000 0.000000
vn 0.000000 0.000000 -1.000000
vn 0.000000 0.000000 -1.000000
vn 0.000000 0.000000 -1.000000
vn 0.000000 0.000000 -1.000000
vn 0.000000 -1.000000 0.000000
vn 0.000000 -1.000000 0.000000
vn 0.000000 -1.000000 0.000000
vn 0.000000 -1.000000 0.000000
vn 1.000000 0.000000 0.000000
vn 1.000000 0.000000 0.000000
vn 1.000000 0.000000 0.000000
vn 1.000000 0.000000 0.000000
vn -1.000000 0.000000 0.000000
vn -1.000000 0.000000 0.000000
vn -1.000000 0.000000 0.000000
vn -1.000000 0.000000 0.000000
vn -1.000000 0.000000 0.000000
vn -1.000000 0.000000 0.000000
vn -1.000000 0.000000 0.000000
vn -1.000000 0.000000 0.000000
vn 0.000000 1.000000 0.000000
vn 0.000000 1.000000 0.000000
vn 0.000000 1.000000 0.000000
vn 0.000000 1.000000 0.000000
vn 1.000000 0.000000 0.000000
vn 1.000000 0.000000 0.000000
vn 1.000000 0.000000 0.000000
vn 1.000000 0.000000 0.000000
vn 0.000000 -1.000000 0.000000
vn 0.000000 -1.000000 0.000000
vn 0.000000 -1.000000 0.000000
vn 0.000000 -1.000000 0.000000
vn -1.000000 0.000000 0.000000
vn -1.000000 0.000000 0.000000
vn -1.000000 0.000000 0.000000
vn -1.000000 0.000000 0.000000
vn 1.000000 0.000000 0.000000
vn 1.000000 0.000000 0.000000
vn 1.000000 0.000000 0.000000
vn 1.000000 0.000000 0.000000
vn 0.000000 -1.000000 0.000000
vn 0.000000 -1.000000 0.000000
vn 0.000000 0.000000 1.000000
vn 0.000000 0.000000 1.000000
vn 0.000000 0.000000 1.000000
vn 0.000000 0.000000 1.000000
vn 0.000000 1.000000 0.000000
vn 0.000000 1.000000 0.000000
vn 0.000000 0.000000 -1.000000
vn 0.000000 0.000000 -1.000000
vn 0.000000 0.000000 -1.000000
vn 0.000000 0.000000 -1.000000
vn 0.000000 -1.000000 0.000000
vn 0.000000 -1.000000 0.000000
vn 0.000000 0.000000 -1.000000
vn 0.000000 0.000000 -1.000000
vn 0.000000 0.000000 -1.000000
vn 0.000000 0.000000 -1.000000
vn 0.000000 1.000000 0.000000
vn 0.000000 1.000000 0.000000
vn 0.000000 0.000000 1.000000
vn 0.000000 0.000000 1.000000
vn 0.000000 0.000000 1.000000
vn 0.000000 0.000000 1.000000
s off
g pCube1
usemtl lambert14SG
f 1/49/1 2/50/2 4/51/3 3/52/4
s 1
f 14/25/5 15/26/6 6/27/7 5/28/8
s off
f 5/53/9 6/54/10 8/55/11 7/56/12
s 2
f 7/37/13 8/38/14 16/39/15 13/40/16
s off
f 16/1/17 8/2/18 6/3/19 15/4/20
f 7/5/21 13/6/22 14/7/23 5/8/24
f 9/9/25 1/10/26 3/11/27 10/12/28
s 1
f 3/31/29 4/32/30 11/30/31 10/29/32
s off
f 2/13/33 12/14/34 11/15/35 4/16/36
s 2
f 9/42/37 12/41/38 2/45/39 1/46/40
s off
f 17/17/41 18/18/42 19/19/43 20/20/44
s 1
f 10/29/32 11/30/31 15/26/6 14/25/5
s off
f 22/21/45 21/22/46 23/23/47 24/24/48
s 2
f 13/40/16 16/39/15 12/41/38 9/42/37
f 13/40/16 9/42/37 18/47/49 17/48/50
s off
f 9/57/51 10/58/52 19/59/53 18/60/54
s 1
f 10/29/32 14/25/5 20/35/55 19/36/56
s off
f 14/61/57 13/62/58 17/63/59 20/64/60
s 2
f 12/41/38 16/39/15 21/43/61 22/44/62
s off
f 16/65/63 15/66/64 23/67/65 21/68/66
s 1
f 15/26/6 11/30/31 24/33/67 23/34/68
s off
f 11/69/69 12/70/70 22/71/71 24/72/72
