# This file uses centimeters as units for non-parametric coordinates.

mtllib suporterodagigante.mtl
g default
v -0.571654 -0.556325 -0.003316
v -0.000939 -0.556325 -0.003316
v -0.571654 -0.506226 -0.003316
v -0.000939 -0.506226 -0.003316
v -0.571654 -0.506226 -0.054362
v -0.000939 -0.506226 -0.054362
v -0.571654 -0.556325 -0.054362
v -0.000939 -0.556325 -0.054362
v -0.015905 -0.506226 -0.003316
v -0.015905 -0.506226 -0.054362
v -0.015905 0.564533 -0.003316
v -0.000939 0.564533 -0.003316
v -0.000939 0.564533 -0.054362
v -0.015905 0.564533 -0.054362
v -0.549600 -0.506226 -0.003316
v -0.549600 -0.506226 -0.054362
v -0.015905 0.503462 -0.054362
v -0.015905 0.503462 -0.003316
v 0.569775 -0.556325 -0.054362
v 0.569775 -0.506226 -0.054362
v 0.569775 -0.506226 -0.003316
v 0.569775 -0.556325 -0.003316
v 0.014027 -0.506226 -0.054362
v 0.014027 -0.506226 -0.003316
v 0.014027 0.564533 -0.054362
v 0.014027 0.564533 -0.003316
v 0.547721 -0.506226 -0.054362
v 0.547721 -0.506226 -0.003316
v 0.014027 0.503462 -0.003316
v 0.014027 0.503462 -0.054362
vt 0.348369 0.394721
vt 0.348369 0.017215
vt 0.348369 0.001615
vt 0.364575 0.001615
vt 0.364575 0.405307
vt 0.348369 0.405307
vt 0.372488 0.001615
vt 0.388694 0.001615
vt 0.388694 0.017215
vt 0.388694 0.394721
vt 0.388694 0.405307
vt 0.372488 0.405307
vt 0.742789 0.001615
vt 0.778896 0.001615
vt 0.778896 0.405307
vt 0.742789 0.405307
vt 0.871420 0.001615
vt 0.907527 0.001615
vt 0.907527 0.017821
vt 0.871420 0.017821
vt 0.871282 0.419219
vt 0.860696 0.419219
vt 0.860696 0.383113
vt 0.871282 0.383113
vt 0.021747 0.394721
vt 0.001992 0.405307
vt 0.001992 0.394721
vt 0.715316 0.394721
vt 0.735071 0.394721
vt 0.735071 0.405307
vt 0.957174 0.001615
vt 0.993280 0.001615
vt 0.993280 0.328236
vt 0.957174 0.328236
vt 0.821773 0.001615
vt 0.821773 0.379121
vt 0.785666 0.379121
vt 0.785666 0.001615
vt 0.961901 0.332227
vt 0.998008 0.332227
vt 0.998008 0.658849
vt 0.961901 0.658849
vt 0.907527 0.364198
vt 0.871420 0.364198
vt 0.388694 0.415893
vt 0.388694 0.793399
vt 0.388694 0.808999
vt 0.372488 0.808999
vt 0.364575 0.808999
vt 0.348369 0.808999
vt 0.348369 0.793399
vt 0.348369 0.415893
vt 0.778896 0.808999
vt 0.742789 0.808999
vt 0.914297 0.001615
vt 0.950404 0.001615
vt 0.950404 0.017821
vt 0.914297 0.017821
vt 0.850110 0.383113
vt 0.850110 0.419219
vt 0.715316 0.415893
vt 0.735071 0.415893
vt 0.021747 0.415893
vt 0.001992 0.415893
vt 0.919659 0.368189
vt 0.955766 0.368189
vt 0.955766 0.694811
vt 0.919659 0.694811
vt 0.828543 0.379121
vt 0.828543 0.001615
vt 0.864650 0.001615
vt 0.864650 0.379121
vt 0.877417 0.368189
vt 0.913524 0.368189
vt 0.913524 0.694811
vt 0.877417 0.694811
vt 0.950404 0.364198
vt 0.914297 0.364198
vn 0.000000 0.000000 1.000000
vn 0.000000 0.000000 1.000000
vn 0.000000 0.000000 1.000000
vn 0.000000 0.000000 1.000000
vn 0.000000 0.000000 1.000000
vn 0.000000 0.000000 1.000000
vn 0.000000 0.000000 -1.000000
vn 0.000000 0.000000 -1.000000
vn 0.000000 0.000000 -1.000000
vn 0.000000 0.000000 -1.000000
vn 0.000000 0.000000 -1.000000
vn 0.000000 0.000000 -1.000000
vn 0.000000 -1.000000 0.000000
vn 0.000000 -1.000000 0.000000
vn 0.000000 -1.000000 0.000000
vn 0.000000 -1.000000 0.000000
vn -1.000000 0.000000 -0.000000
vn -1.000000 0.000000 -0.000000
vn -1.000000 0.000000 -0.000000
vn -1.000000 0.000000 -0.000000
vn 0.000000 1.000000 0.000000
vn 0.000000 1.000000 0.000000
vn 0.000000 1.000000 0.000000
vn 0.000000 1.000000 0.000000
vn 0.000000 0.000000 1.000000
vn 0.000000 0.000000 1.000000
vn 0.000000 0.000000 1.000000
vn 0.000000 0.000000 1.000000
vn 0.000000 0.000000 1.000000
vn 0.000000 0.000000 -1.000000
vn 0.000000 0.000000 -1.000000
vn 0.000000 0.000000 -1.000000
vn 0.000000 0.000000 -1.000000
vn 0.000000 0.000000 -1.000000
vn -1.000000 0.000000 -0.000000
vn -1.000000 0.000000 -0.000000
vn -1.000000 0.000000 -0.000000
vn -1.000000 0.000000 -0.000000
vn 0.000000 1.000000 0.000000
vn 0.000000 1.000000 0.000000
vn 0.000000 1.000000 0.000000
vn 0.000000 1.000000 0.000000
vn 0.884094 -0.467309 0.000000
vn 0.884094 -0.467309 0.000000
vn 0.884094 -0.467309 0.000000
vn 0.884094 -0.467309 0.000000
vn -0.000000 0.000000 -1.000000
vn -0.000000 0.000000 -1.000000
vn -0.000000 0.000000 -1.000000
vn -0.000000 0.000000 -1.000000
vn -0.887571 0.460670 -0.000000
vn -0.887571 0.460670 -0.000000
vn -0.887571 0.460670 -0.000000
vn -0.887571 0.460670 -0.000000
vn 0.000000 0.000000 1.000000
vn 0.000000 0.000000 1.000000
vn 0.000000 0.000000 1.000000
vn 0.000000 0.000000 1.000000
vn -0.000000 0.000000 -1.000000
vn 0.000000 0.000000 -1.000000
vn 0.000000 0.000000 -1.000000
vn 0.000000 0.000000 -1.000000
vn 0.000000 0.000000 -1.000000
vn -0.000000 0.000000 -1.000000
vn 0.000000 0.000000 1.000000
vn 0.000000 0.000000 1.000000
vn 0.000000 0.000000 1.000000
vn 0.000000 0.000000 1.000000
vn 0.000000 0.000000 1.000000
vn 0.000000 0.000000 1.000000
vn 0.000000 -1.000000 0.000000
vn 0.000000 -1.000000 0.000000
vn 0.000000 -1.000000 0.000000
vn 0.000000 -1.000000 0.000000
vn 1.000000 0.000000 0.000000
vn 1.000000 0.000000 0.000000
vn 1.000000 0.000000 0.000000
vn 1.000000 0.000000 0.000000
vn 0.000000 1.000000 0.000000
vn 0.000000 1.000000 0.000000
vn 0.000000 1.000000 0.000000
vn 0.000000 1.000000 0.000000
vn -0.000000 0.000000 -1.000000
vn -0.000000 0.000000 -1.000000
vn -0.000000 0.000000 -1.000000
vn -0.000000 0.000000 -1.000000
vn -0.000000 0.000000 -1.000000
vn 0.000000 0.000000 1.000000
vn 0.000000 0.000000 1.000000
vn 0.000000 0.000000 1.000000
vn 0.000000 0.000000 1.000000
vn 0.000000 0.000000 1.000000
vn 1.000000 0.000000 0.000000
vn 1.000000 0.000000 0.000000
vn 1.000000 0.000000 0.000000
vn 1.000000 0.000000 0.000000
vn 0.000000 1.000000 0.000000
vn 0.000000 1.000000 0.000000
vn 0.000000 1.000000 0.000000
vn 0.000000 1.000000 0.000000
vn -0.884094 -0.467309 0.000000
vn -0.884094 -0.467309 0.000000
vn -0.884094 -0.467309 0.000000
vn -0.884094 -0.467309 0.000000
vn 0.000000 0.000000 1.000000
vn 0.000000 0.000000 1.000000
vn 0.000000 0.000000 1.000000
vn 0.000000 0.000000 1.000000
vn 0.887571 0.460670 0.000000
vn 0.887571 0.460670 0.000000
vn 0.887571 0.460670 0.000000
vn 0.887571 0.460670 0.000000
vn 0.000000 0.000000 -1.000000
vn 0.000000 0.000000 -1.000000
vn 0.000000 0.000000 -1.000000
vn 0.000000 0.000000 -1.000000
s off
g pCube5
usemtl lambert22SG
f 9/1/1 15/2/2 3/3/3 1/4/4 2/5/5 4/6/6
f 7/7/7 5/8/8 16/9/9 10/10/10 6/11/11 8/12/12
f 1/13/13 7/14/14 8/15/15 2/16/16
f 7/17/17 1/18/18 3/19/19 5/20/20
f 11/21/21 12/22/22 13/23/23 14/24/24
f 18/25/25 9/1/26 4/6/27 12/26/28 11/27/29
f 6/11/30 10/10/31 17/28/32 14/29/33 13/30/34
f 10/31/35 9/32/36 18/33/37 17/34/38
f 15/35/39 9/36/40 10/37/41 16/38/42
f 15/39/43 16/40/44 17/41/45 18/42/46
f 16/9/47 5/8/48 14/29/49 17/28/50
f 5/20/51 3/19/52 11/43/53 14/44/54
f 3/3/55 15/2/56 18/25/57 11/27/58
f 23/45/59 27/46/60 20/47/61 19/48/62 8/12/63 6/11/64
f 22/49/65 21/50/66 28/51/67 24/52/68 4/6/69 2/5/70
f 19/53/71 22/54/72 2/16/73 8/15/74
f 22/55/75 19/56/76 20/57/77 21/58/78
f 25/59/79 13/23/80 12/22/81 26/60/82
f 30/61/83 23/45/84 6/11/85 13/30/86 25/62/87
f 4/6/88 24/52/89 29/63/90 26/64/91 12/26/92
f 24/65/93 23/66/94 30/67/95 29/68/96
f 27/69/97 23/70/98 24/71/99 28/72/100
f 27/73/101 28/74/102 29/75/103 30/76/104
f 28/51/105 21/50/106 26/64/107 29/63/108
f 21/58/109 20/57/110 25/77/111 26/78/112
f 20/47/113 27/46/114 30/61/115 25/62/116
