# This file uses centimeters as units for non-parametric coordinates.

mtllib segurancabancoelevador.mtl
g default
v 2.004225 2.059941 -0.651329
v 1.704896 2.059941 -1.238898
v 1.238679 2.059941 -1.705197
v 0.651212 2.059941 -2.004579
v 0.000000 2.059941 -2.107739
v -0.651212 2.059941 -2.004579
v -1.238679 2.059941 -1.705197
v -1.704895 2.059941 -1.238898
v -2.004224 2.059941 -0.651328
v -2.107366 2.059941 -0.000001
v -2.004224 2.059941 0.651327
v -1.704895 2.059941 1.238897
v -1.238679 2.059941 1.705196
v -0.651212 2.059941 2.004578
v 0.000000 2.059941 2.107738
v 0.651212 2.059941 2.004578
v 1.238679 2.059941 1.705196
v 1.704895 2.059941 1.238897
v 2.004224 2.059941 0.651327
v 2.107366 2.059941 -0.000001
v 2.172214 2.061743 -0.705921
v 1.847796 2.061743 -1.342741
v 1.342502 2.061743 -1.848123
v 0.705795 2.061743 -2.172598
v 0.000000 2.061743 -2.284405
v -0.705795 2.061743 -2.172598
v -1.342502 2.061743 -1.848123
v -1.847795 2.061743 -1.342740
v -2.172214 2.061743 -0.705920
v -2.284000 2.061743 -0.000001
v -2.172214 2.061743 0.705919
v -1.847795 2.061743 1.342739
v -1.342502 2.061743 1.848121
v -0.705795 2.061743 2.172597
v -0.000000 2.061743 2.284403
v 0.705795 2.061743 2.172597
v 1.342501 2.061743 1.848121
v 1.847795 2.061743 1.342739
v 2.172213 2.061743 0.705919
v 2.284000 2.061743 -0.000001
v 2.172214 2.388112 -0.705921
v 1.847796 2.388112 -1.342741
v 1.342502 2.388112 -1.848123
v 0.705795 2.388112 -2.172598
v 0.000000 2.388112 -2.284405
v -0.705795 2.388112 -2.172598
v -1.342502 2.388112 -1.848123
v -1.847795 2.388112 -1.342740
v -2.172214 2.388112 -0.705920
v -2.284000 2.388112 -0.000001
v -2.172214 2.388112 0.705919
v -1.847795 2.388112 1.342739
v -1.342502 2.388112 1.848121
v -0.705795 2.388112 2.172597
v -0.000000 2.388112 2.284403
v 0.705795 2.388112 2.172597
v 1.342501 2.388112 1.848121
v 1.847795 2.388112 1.342739
v 2.172213 2.388112 0.705919
v 2.284000 2.388112 -0.000001
v 2.004225 2.389914 -0.651329
v 1.704896 2.389914 -1.238898
v 1.238679 2.389914 -1.705197
v 0.651212 2.389914 -2.004579
v 0.000000 2.389914 -2.107739
v -0.651212 2.389914 -2.004579
v -1.238679 2.389914 -1.705197
v -1.704895 2.389914 -1.238898
v -2.004224 2.389914 -0.651328
v -2.107366 2.389914 -0.000001
v -2.004224 2.389914 0.651327
v -1.704895 2.389914 1.238897
v -1.238679 2.389914 1.705196
v -0.651212 2.389914 2.004578
v 0.000000 2.389914 2.107738
v 0.651212 2.389914 2.004578
v 1.238679 2.389914 1.705196
v 1.704895 2.389914 1.238897
v 2.004224 2.389914 0.651327
v 2.107366 2.389914 -0.000001
vt 0.528573 0.337673
vt 0.574330 0.337673
vt 0.574330 0.665951
vt 0.528573 0.665951
vt 0.610643 0.337673
vt 0.610643 0.665951
vt 0.477852 0.337673
vt 0.477852 0.665951
vt 0.427130 0.337673
vt 0.427130 0.665951
vt 0.381373 0.337673
vt 0.381373 0.665951
vt 0.345060 0.337673
vt 0.345060 0.665951
vt 0.038198 0.669730
vt 0.083955 0.669730
vt 0.083955 0.998008
vt 0.038198 0.998008
vt 0.134677 0.669730
vt 0.134677 0.998008
vt 0.001886 0.669730
vt 0.001886 0.998008
vt 0.185399 0.669730
vt 0.185399 0.998008
vt 0.231155 0.669730
vt 0.231155 0.998008
vt 0.267468 0.669730
vt 0.267468 0.998008
vt 0.035390 0.001992
vt 0.077608 0.001992
vt 0.077608 0.333895
vt 0.035390 0.333895
vt 0.124407 0.001992
vt 0.124407 0.333895
vt 0.001886 0.001992
vt 0.001886 0.333895
vt 0.171207 0.001992
vt 0.171207 0.333895
vt 0.213425 0.001992
vt 0.213425 0.333895
vt 0.246929 0.001992
vt 0.246929 0.333895
vt 0.470972 0.001992
vt 0.513191 0.001992
vt 0.513191 0.333895
vt 0.470972 0.333895
vt 0.559990 0.001992
vt 0.559990 0.333895
vt 0.437468 0.001992
vt 0.437468 0.333895
vt 0.606789 0.001992
vt 0.606789 0.333895
vt 0.649007 0.001992
vt 0.649007 0.333895
vt 0.682511 0.001992
vt 0.682511 0.333895
vt 0.924622 0.455013
vt 0.903111 0.412795
vt 0.913381 0.405334
vt 0.936695 0.451090
vt 0.869607 0.379291
vt 0.877068 0.369021
vt 0.932035 0.501812
vt 0.944728 0.501812
vt 0.827389 0.357779
vt 0.831311 0.345707
vt 0.924622 0.548611
vt 0.936695 0.552534
vt 0.780589 0.350367
vt 0.780589 0.337673
vt 0.903111 0.590829
vt 0.913381 0.598291
vt 0.733790 0.357779
vt 0.729868 0.345707
vt 0.869607 0.624334
vt 0.877068 0.634603
vt 0.691572 0.379291
vt 0.684111 0.369021
vt 0.827389 0.645845
vt 0.831311 0.657918
vt 0.658068 0.412795
vt 0.647798 0.405334
vt 0.780589 0.653257
vt 0.780589 0.665951
vt 0.636557 0.455013
vt 0.624484 0.451091
vt 0.733790 0.645845
vt 0.729868 0.657918
vt 0.629144 0.501812
vt 0.616451 0.501812
vt 0.691572 0.624334
vt 0.684111 0.634603
vt 0.636557 0.548611
vt 0.624484 0.552534
vt 0.658068 0.590829
vt 0.647798 0.598291
vt 0.794611 0.884591
vt 0.771296 0.930347
vt 0.761027 0.922886
vt 0.782538 0.880668
vt 0.734983 0.966660
vt 0.727522 0.956391
vt 0.802644 0.833869
vt 0.789950 0.833869
vt 0.689227 0.989974
vt 0.685304 0.977902
vt 0.794610 0.783147
vt 0.782538 0.787070
vt 0.638505 0.998008
vt 0.638505 0.985314
vt 0.771296 0.737390
vt 0.761027 0.744851
vt 0.587783 0.989974
vt 0.591706 0.977902
vt 0.734983 0.701078
vt 0.727522 0.711347
vt 0.542026 0.966660
vt 0.549488 0.956391
vt 0.689227 0.677763
vt 0.685304 0.689836
vt 0.505714 0.930347
vt 0.515983 0.922886
vt 0.638505 0.669730
vt 0.638505 0.682424
vt 0.482400 0.884590
vt 0.494472 0.880668
vt 0.587783 0.677763
vt 0.591706 0.689836
vt 0.474366 0.833869
vt 0.487060 0.833869
vt 0.542027 0.701078
vt 0.549488 0.711347
vt 0.482400 0.783147
vt 0.494472 0.787070
vt 0.505714 0.737390
vt 0.515983 0.744851
vt 0.339253 0.665951
vt 0.293496 0.665951
vt 0.293496 0.337673
vt 0.339253 0.337673
vt 0.242774 0.665951
vt 0.242774 0.337673
vt 0.192052 0.665951
vt 0.192052 0.337673
vt 0.146296 0.665951
vt 0.146296 0.337673
vt 0.275116 0.669730
vt 0.320873 0.669730
vt 0.320873 0.998008
vt 0.275116 0.998008
vt 0.371595 0.669730
vt 0.371595 0.998008
vt 0.422316 0.669730
vt 0.422316 0.998008
vt 0.468073 0.669730
vt 0.468073 0.998008
vt 0.431012 0.333895
vt 0.388794 0.333895
vt 0.388794 0.001992
vt 0.431012 0.001992
vt 0.341995 0.333895
vt 0.341995 0.001992
vt 0.295195 0.333895
vt 0.295195 0.001992
vt 0.252977 0.333895
vt 0.252977 0.001992
vt 0.688375 0.001992
vt 0.730593 0.001992
vt 0.730593 0.333895
vt 0.688375 0.333895
vt 0.777392 0.001992
vt 0.777392 0.333895
vt 0.824192 0.001992
vt 0.824192 0.333895
vt 0.866410 0.001992
vt 0.866410 0.333895
vn 0.009701 -0.999948 -0.003152
vn 0.008252 -0.999948 -0.005995
vn 0.008252 -0.999948 -0.005995
vn 0.009701 -0.999948 -0.003152
vn 0.005996 -0.999948 -0.008251
vn 0.005996 -0.999948 -0.008251
vn 0.003152 -0.999948 -0.009699
vn 0.003152 -0.999948 -0.009699
vn 0.000000 -0.999948 -0.010199
vn -0.000000 -0.999948 -0.010199
vn -0.003152 -0.999948 -0.009699
vn -0.003152 -0.999948 -0.009699
vn -0.005996 -0.999948 -0.008251
vn -0.005996 -0.999948 -0.008251
vn -0.008252 -0.999948 -0.005995
vn -0.008252 -0.999948 -0.005995
vn -0.009701 -0.999948 -0.003152
vn -0.009701 -0.999948 -0.003152
vn -0.010200 -0.999948 -0.000000
vn -0.010200 -0.999948 -0.000000
vn -0.009701 -0.999948 0.003152
vn -0.009701 -0.999948 0.003152
vn -0.008252 -0.999948 0.005995
vn -0.008252 -0.999948 0.005995
vn -0.005996 -0.999948 0.008251
vn -0.005996 -0.999948 0.008251
vn -0.003152 -0.999948 0.009699
vn -0.003152 -0.999948 0.009699
vn 0.000000 -0.999948 0.010199
vn -0.000000 -0.999948 0.010199
vn 0.003152 -0.999948 0.009699
vn 0.003152 -0.999948 0.009699
vn 0.005996 -0.999948 0.008251
vn 0.005996 -0.999948 0.008251
vn 0.008252 -0.999948 0.005995
vn 0.008252 -0.999948 0.005995
vn 0.009701 -0.999948 0.003152
vn 0.009701 -0.999948 0.003152
vn 0.010200 -0.999948 0.000000
vn 0.010200 -0.999948 0.000000
vn 0.951073 0.000000 -0.308967
vn 0.809066 0.000000 -0.587717
vn 0.809066 0.000000 -0.587717
vn 0.951073 0.000000 -0.308967
vn 0.587852 0.000000 -0.808968
vn 0.587852 0.000000 -0.808968
vn 0.309066 0.000000 -0.951041
vn 0.309066 0.000000 -0.951041
vn 0.000000 0.000000 -1.000000
vn 0.000000 0.000000 -1.000000
vn -0.309066 0.000000 -0.951041
vn -0.309066 0.000000 -0.951041
vn -0.587853 0.000000 -0.808968
vn -0.587853 0.000000 -0.808968
vn -0.809067 0.000000 -0.587717
vn -0.809067 0.000000 -0.587717
vn -0.951073 0.000000 -0.308967
vn -0.951073 0.000000 -0.308967
vn -1.000000 0.000000 0.000000
vn -1.000000 0.000000 0.000000
vn -0.951073 0.000000 0.308967
vn -0.951073 0.000000 0.308967
vn -0.809066 0.000000 0.587717
vn -0.809066 0.000000 0.587717
vn -0.587853 0.000000 0.808968
vn -0.587853 0.000000 0.808968
vn -0.309066 0.000000 0.951041
vn -0.309066 0.000000 0.951041
vn 0.000000 0.000000 1.000000
vn 0.000000 0.000000 1.000000
vn 0.309066 0.000000 0.951041
vn 0.309066 0.000000 0.951041
vn 0.587853 0.000000 0.808968
vn 0.587853 0.000000 0.808968
vn 0.809066 0.000000 0.587717
vn 0.809066 0.000000 0.587717
vn 0.951073 0.000000 0.308967
vn 0.951073 0.000000 0.308967
vn 1.000000 0.000000 0.000001
vn 1.000000 0.000000 0.000001
vn 0.009701 0.999948 -0.003152
vn 0.008252 0.999948 -0.005995
vn 0.008252 0.999948 -0.005995
vn 0.009701 0.999948 -0.003152
vn 0.005996 0.999948 -0.008251
vn 0.005996 0.999948 -0.008251
vn 0.003152 0.999948 -0.009699
vn 0.003152 0.999948 -0.009699
vn -0.000000 0.999948 -0.010199
vn 0.000000 0.999948 -0.010199
vn -0.003152 0.999948 -0.009699
vn -0.003152 0.999948 -0.009699
vn -0.005996 0.999948 -0.008251
vn -0.005996 0.999948 -0.008251
vn -0.008252 0.999948 -0.005995
vn -0.008252 0.999948 -0.005995
vn -0.009701 0.999948 -0.003152
vn -0.009701 0.999948 -0.003152
vn -0.010200 0.999948 -0.000000
vn -0.010200 0.999948 -0.000000
vn -0.009701 0.999948 0.003152
vn -0.009701 0.999948 0.003152
vn -0.008252 0.999948 0.005995
vn -0.008252 0.999948 0.005995
vn -0.005996 0.999948 0.008251
vn -0.005996 0.999948 0.008251
vn -0.003152 0.999948 0.009699
vn -0.003152 0.999948 0.009699
vn -0.000000 0.999948 0.010199
vn 0.000000 0.999948 0.010199
vn 0.003152 0.999948 0.009699
vn 0.003152 0.999948 0.009699
vn 0.005996 0.999948 0.008251
vn 0.005996 0.999948 0.008251
vn 0.008252 0.999948 0.005995
vn 0.008252 0.999948 0.005995
vn 0.009701 0.999948 0.003152
vn 0.009701 0.999948 0.003152
vn 0.010200 0.999948 0.000000
vn 0.010200 0.999948 0.000000
vn -0.891039 0.000000 0.453927
vn -0.891039 0.000000 0.453927
vn -0.891039 0.000000 0.453927
vn -0.891039 0.000000 0.453927
vn -0.987693 0.000000 0.156405
vn -0.987693 0.000000 0.156405
vn -0.987693 0.000000 0.156405
vn -0.987693 0.000000 0.156405
vn -0.987693 0.000000 -0.156408
vn -0.987693 0.000000 -0.156408
vn -0.987693 0.000000 -0.156408
vn -0.987693 0.000000 -0.156408
vn -0.891039 0.000000 -0.453926
vn -0.891039 0.000000 -0.453926
vn -0.891039 0.000000 -0.453926
vn -0.891039 0.000000 -0.453926
vn -0.707169 0.000000 -0.707044
vn -0.707169 0.000000 -0.707044
vn -0.707169 0.000000 -0.707044
vn -0.707169 0.000000 -0.707044
vn -0.454054 0.000000 -0.890974
vn -0.454054 0.000000 -0.890974
vn -0.454054 0.000000 -0.890974
vn -0.454054 0.000000 -0.890974
vn -0.156461 0.000000 -0.987684
vn -0.156461 0.000000 -0.987684
vn -0.156461 0.000000 -0.987684
vn -0.156461 0.000000 -0.987684
vn 0.156461 0.000000 -0.987684
vn 0.156461 0.000000 -0.987684
vn 0.156461 0.000000 -0.987684
vn 0.156461 0.000000 -0.987684
vn 0.454054 0.000000 -0.890974
vn 0.454054 0.000000 -0.890974
vn 0.454054 0.000000 -0.890974
vn 0.454054 0.000000 -0.890974
vn 0.707169 0.000000 -0.707044
vn 0.707169 0.000000 -0.707044
vn 0.707169 0.000000 -0.707044
vn 0.707169 0.000000 -0.707044
vn 0.891039 0.000000 -0.453927
vn 0.891039 0.000000 -0.453927
vn 0.891039 0.000000 -0.453927
vn 0.891039 0.000000 -0.453927
vn 0.987693 0.000000 -0.156408
vn 0.987693 0.000000 -0.156408
vn 0.987693 0.000000 -0.156408
vn 0.987693 0.000000 -0.156408
vn 0.987693 0.000000 0.156408
vn 0.987693 0.000000 0.156408
vn 0.987693 0.000000 0.156408
vn 0.987693 0.000000 0.156408
vn 0.891039 0.000000 0.453926
vn 0.891039 0.000000 0.453926
vn 0.891039 0.000000 0.453926
vn 0.891039 0.000000 0.453926
vn 0.707169 0.000000 0.707044
vn 0.707169 0.000000 0.707044
vn 0.707169 0.000000 0.707044
vn 0.707169 0.000000 0.707044
vn 0.454054 0.000000 0.890974
vn 0.454054 0.000000 0.890974
vn 0.454054 0.000000 0.890974
vn 0.454054 0.000000 0.890974
vn 0.156461 0.000000 0.987684
vn 0.156461 0.000000 0.987684
vn 0.156461 0.000000 0.987684
vn 0.156461 0.000000 0.987684
vn -0.156461 0.000000 0.987684
vn -0.156461 0.000000 0.987684
vn -0.156461 0.000000 0.987684
vn -0.156461 0.000000 0.987684
vn -0.454054 0.000000 0.890974
vn -0.454054 0.000000 0.890974
vn -0.454054 0.000000 0.890974
vn -0.454054 0.000000 0.890974
vn -0.707169 0.000000 0.707045
vn -0.707169 0.000000 0.707045
vn -0.707169 0.000000 0.707045
vn -0.707169 0.000000 0.707045
s 1
g pCylinder7
usemtl initialShadingGroup
f 1/57/1 2/58/2 22/59/3 21/60/4
f 2/58/2 3/61/5 23/62/6 22/59/3
f 3/61/5 4/65/7 24/66/8 23/62/6
f 4/65/7 5/69/9 25/70/10 24/66/8
f 5/69/9 6/73/11 26/74/12 25/70/10
f 6/73/11 7/77/13 27/78/14 26/74/12
f 7/77/13 8/81/15 28/82/16 27/78/14
f 8/81/15 9/85/17 29/86/18 28/82/16
f 9/85/17 10/89/19 30/90/20 29/86/18
f 10/89/19 11/93/21 31/94/22 30/90/20
f 11/93/21 12/95/23 32/96/24 31/94/22
f 12/95/23 13/91/25 33/92/26 32/96/24
f 13/91/25 14/87/27 34/88/28 33/92/26
f 14/87/27 15/83/29 35/84/30 34/88/28
f 15/83/29 16/79/31 36/80/32 35/84/30
f 16/79/31 17/75/33 37/76/34 36/80/32
f 17/75/33 18/71/35 38/72/36 37/76/34
f 18/71/35 19/67/37 39/68/38 38/72/36
f 19/67/37 20/63/39 40/64/40 39/68/38
f 20/63/39 1/57/1 21/60/4 40/64/40
s 2
f 21/1/41 22/2/42 42/3/43 41/4/44
f 22/2/42 23/5/45 43/6/46 42/3/43
f 23/137/45 24/138/47 44/139/48 43/140/46
f 24/138/47 25/141/49 45/142/50 44/139/48
f 25/141/49 26/143/51 46/144/52 45/142/50
f 26/143/51 27/145/53 47/146/54 46/144/52
f 27/21/53 28/15/55 48/18/56 47/22/54
f 28/15/55 29/16/57 49/17/58 48/18/56
f 29/16/57 30/19/59 50/20/60 49/17/58
f 30/19/59 31/23/61 51/24/62 50/20/60
f 31/23/61 32/25/63 52/26/64 51/24/62
f 32/25/63 33/27/65 53/28/66 52/26/64
f 33/147/65 34/148/67 54/149/68 53/150/66
f 34/148/67 35/151/69 55/152/70 54/149/68
f 35/151/69 36/153/71 56/154/72 55/152/70
f 36/153/71 37/155/73 57/156/74 56/154/72
f 37/13/73 38/11/75 58/12/76 57/14/74
f 38/11/75 39/9/77 59/10/78 58/12/76
f 39/9/77 40/7/79 60/8/80 59/10/78
f 40/7/79 21/1/41 41/4/44 60/8/80
s 3
f 41/97/81 42/98/82 62/99/83 61/100/84
f 42/98/82 43/101/85 63/102/86 62/99/83
f 43/101/85 44/105/87 64/106/88 63/102/86
f 44/105/87 45/109/89 65/110/90 64/106/88
f 45/109/89 46/113/91 66/114/92 65/110/90
f 46/113/91 47/117/93 67/118/94 66/114/92
f 47/117/93 48/121/95 68/122/96 67/118/94
f 48/121/95 49/125/97 69/126/98 68/122/96
f 49/125/97 50/129/99 70/130/100 69/126/98
f 50/129/99 51/133/101 71/134/102 70/130/100
f 51/133/101 52/135/103 72/136/104 71/134/102
f 52/135/103 53/131/105 73/132/106 72/136/104
f 53/131/105 54/127/107 74/128/108 73/132/106
f 54/127/107 55/123/109 75/124/110 74/128/108
f 55/123/109 56/119/111 76/120/112 75/124/110
f 56/119/111 57/115/113 77/116/114 76/120/112
f 57/115/113 58/111/115 78/112/116 77/116/114
f 58/111/115 59/107/117 79/108/118 78/112/116
f 59/107/117 60/103/119 80/104/120 79/108/118
f 60/103/119 41/97/81 61/100/84 80/104/120
s off
f 2/29/121 1/30/122 61/31/123 62/32/124
f 1/30/125 20/33/126 80/34/127 61/31/128
f 20/33/129 19/37/130 79/38/131 80/34/132
f 19/37/133 18/39/134 78/40/135 79/38/136
f 18/39/137 17/41/138 77/42/139 78/40/140
f 17/157/141 16/158/142 76/159/143 77/160/144
f 16/158/145 15/161/146 75/162/147 76/159/148
f 15/161/149 14/163/150 74/164/151 75/162/152
f 14/163/153 13/165/154 73/166/155 74/164/156
f 13/49/157 12/43/158 72/46/159 73/50/160
f 12/43/161 11/44/162 71/45/163 72/46/164
f 11/44/165 10/47/166 70/48/167 71/45/168
f 10/47/169 9/51/170 69/52/171 70/48/172
f 9/51/173 8/53/174 68/54/175 69/52/176
f 8/53/177 7/55/178 67/56/179 68/54/180
f 7/167/181 6/168/182 66/169/183 67/170/184
f 6/168/185 5/171/186 65/172/187 66/169/188
f 5/171/189 4/173/190 64/174/191 65/172/192
f 4/173/193 3/175/194 63/176/195 64/174/196
f 3/35/197 2/29/198 62/32/199 63/36/200
