# This file uses centimeters as units for non-parametric coordinates.

mtllib segurancabancoelevador.mtl
g default
v 2.004225 2.059941 -0.651329
v 1.704896 2.059941 -1.238898
v 1.238679 2.059941 -1.705197
v 0.651212 2.059941 -2.004579
v 0.000000 2.059941 -2.107739
v -0.651212 2.059941 -2.004579
v -1.238679 2.059941 -1.705197
v -1.704895 2.059941 -1.238898
v -2.004224 2.059941 -0.651328
v -2.107366 2.059941 -0.000001
v -2.004224 2.059941 0.651327
v -1.704895 2.059941 1.238897
v -1.238679 2.059941 1.705196
v -0.651212 2.059941 2.004578
v 0.000000 2.059941 2.107738
v 0.651212 2.059941 2.004578
v 1.238679 2.059941 1.705196
v 1.704895 2.059941 1.238897
v 2.004224 2.059941 0.651327
v 2.107366 2.059941 -0.000001
v 2.172214 2.061743 -0.705921
v 1.847796 2.061743 -1.342741
v 1.342502 2.061743 -1.848123
v 0.705795 2.061743 -2.172598
v 0.000000 2.061743 -2.284405
v -0.705795 2.061743 -2.172598
v -1.342502 2.061743 -1.848123
v -1.847795 2.061743 -1.342740
v -2.172214 2.061743 -0.705920
v -2.284000 2.061743 -0.000001
v -2.172214 2.061743 0.705919
v -1.847795 2.061743 1.342739
v -1.342502 2.061743 1.848121
v -0.705795 2.061743 2.172597
v 0.000000 2.061743 2.284403
v 0.705795 2.061743 2.172597
v 1.342501 2.061743 1.848121
v 1.847795 2.061743 1.342739
v 2.172213 2.061743 0.705919
v 2.284000 2.061743 -0.000001
v 2.172214 2.388112 -0.705921
v 1.847796 2.388112 -1.342741
v 1.342502 2.388112 -1.848123
v 0.705795 2.388112 -2.172598
v 0.000000 2.388112 -2.284405
v -0.705795 2.388112 -2.172598
v -1.342502 2.388112 -1.848123
v -1.847795 2.388112 -1.342740
v -2.172214 2.388112 -0.705920
v -2.284000 2.388112 -0.000001
v -2.172214 2.388112 0.705919
v -1.847795 2.388112 1.342739
v -1.342502 2.388112 1.848121
v -0.705795 2.388112 2.172597
v 0.000000 2.388112 2.284403
v 0.705795 2.388112 2.172597
v 1.342501 2.388112 1.848121
v 1.847795 2.388112 1.342739
v 2.172213 2.388112 0.705919
v 2.284000 2.388112 -0.000001
v 2.004225 2.389914 -0.651329
v 1.704896 2.389914 -1.238898
v 1.238679 2.389914 -1.705197
v 0.651212 2.389914 -2.004579
v 0.000000 2.389914 -2.107739
v -0.651212 2.389914 -2.004579
v -1.238679 2.389914 -1.705197
v -1.704895 2.389914 -1.238898
v -2.004224 2.389914 -0.651328
v -2.107366 2.389914 -0.000001
v -2.004224 2.389914 0.651327
v -1.704895 2.389914 1.238897
v -1.238679 2.389914 1.705196
v -0.651212 2.389914 2.004578
v 0.000000 2.389914 2.107738
v 0.651212 2.389914 2.004578
v 1.238679 2.389914 1.705196
v 1.704895 2.389914 1.238897
v 2.004224 2.389914 0.651327
v 2.107366 2.389914 -0.000001
vt 0.924622 0.455013
vt 0.903111 0.412795
vt 0.913381 0.405334
vt 0.936695 0.451090
vt 0.869607 0.379291
vt 0.877068 0.369021
vt 0.827389 0.357779
vt 0.831311 0.345707
vt 0.780589 0.350367
vt 0.780589 0.337673
vt 0.733790 0.357779
vt 0.729868 0.345707
vt 0.691572 0.379291
vt 0.684111 0.369021
vt 0.658068 0.412795
vt 0.647798 0.405334
vt 0.636557 0.455013
vt 0.624484 0.451091
vt 0.629144 0.501812
vt 0.616451 0.501812
vt 0.636557 0.548611
vt 0.624484 0.552534
vt 0.658068 0.590829
vt 0.647798 0.598291
vt 0.691572 0.624334
vt 0.684111 0.634603
vt 0.733790 0.645845
vt 0.729868 0.657918
vt 0.780589 0.653257
vt 0.780589 0.665951
vt 0.827389 0.645845
vt 0.831311 0.657918
vt 0.869607 0.624334
vt 0.877068 0.634603
vt 0.903111 0.590829
vt 0.913381 0.598291
vt 0.924622 0.548611
vt 0.936695 0.552534
vt 0.932035 0.501812
vt 0.944728 0.501812
vt 0.528573 0.337673
vt 0.574330 0.337673
vt 0.574330 0.665951
vt 0.528573 0.665951
vt 0.610643 0.337673
vt 0.610643 0.665951
vt 0.339253 0.665951
vt 0.293496 0.665951
vt 0.293496 0.337673
vt 0.339253 0.337673
vt 0.242774 0.665951
vt 0.242774 0.337673
vt 0.192052 0.665951
vt 0.192052 0.337673
vt 0.146296 0.665951
vt 0.146296 0.337673
vt 0.001886 0.669730
vt 0.038198 0.669730
vt 0.038198 0.998008
vt 0.001886 0.998008
vt 0.083955 0.669730
vt 0.083955 0.998008
vt 0.134677 0.669730
vt 0.134677 0.998008
vt 0.185399 0.669730
vt 0.185399 0.998008
vt 0.231155 0.669730
vt 0.231155 0.998008
vt 0.267468 0.669730
vt 0.267468 0.998008
vt 0.275116 0.669730
vt 0.320873 0.669730
vt 0.320873 0.998008
vt 0.275116 0.998008
vt 0.371595 0.669730
vt 0.371595 0.998008
vt 0.422316 0.669730
vt 0.422316 0.998008
vt 0.468073 0.669730
vt 0.468073 0.998008
vt 0.345060 0.337673
vt 0.381373 0.337673
vt 0.381373 0.665951
vt 0.345060 0.665951
vt 0.427130 0.337673
vt 0.427130 0.665951
vt 0.477852 0.337673
vt 0.477852 0.665951
vt 0.794611 0.884591
vt 0.771296 0.930347
vt 0.761027 0.922886
vt 0.782538 0.880668
vt 0.734983 0.966660
vt 0.727522 0.956391
vt 0.689227 0.989974
vt 0.685304 0.977902
vt 0.638505 0.998008
vt 0.638505 0.985314
vt 0.587783 0.989974
vt 0.591706 0.977902
vt 0.542026 0.966660
vt 0.549488 0.956391
vt 0.505714 0.930347
vt 0.515983 0.922886
vt 0.482400 0.884590
vt 0.494472 0.880668
vt 0.474366 0.833869
vt 0.487060 0.833869
vt 0.482400 0.783147
vt 0.494472 0.787070
vt 0.505714 0.737390
vt 0.515983 0.744851
vt 0.542027 0.701078
vt 0.549488 0.711347
vt 0.587783 0.677763
vt 0.591706 0.689836
vt 0.638505 0.669730
vt 0.638505 0.682424
vt 0.689227 0.677763
vt 0.685304 0.689836
vt 0.734983 0.701078
vt 0.727522 0.711347
vt 0.771296 0.737390
vt 0.761027 0.744851
vt 0.794610 0.783147
vt 0.782538 0.787070
vt 0.802644 0.833869
vt 0.789950 0.833869
vt 0.035390 0.001992
vt 0.077608 0.001992
vt 0.077608 0.333895
vt 0.035390 0.333895
vt 0.124407 0.001992
vt 0.124407 0.333895
vt 0.171207 0.001992
vt 0.171207 0.333895
vt 0.213425 0.001992
vt 0.213425 0.333895
vt 0.246929 0.001992
vt 0.246929 0.333895
vt 0.431012 0.333895
vt 0.388794 0.333895
vt 0.388794 0.001992
vt 0.431012 0.001992
vt 0.341995 0.333895
vt 0.341995 0.001992
vt 0.295195 0.333895
vt 0.295195 0.001992
vt 0.252977 0.333895
vt 0.252977 0.001992
vt 0.437468 0.001992
vt 0.470972 0.001992
vt 0.470972 0.333895
vt 0.437468 0.333895
vt 0.513191 0.001992
vt 0.513191 0.333895
vt 0.559990 0.001992
vt 0.559990 0.333895
vt 0.606789 0.001992
vt 0.606789 0.333895
vt 0.649007 0.001992
vt 0.649007 0.333895
vt 0.682511 0.001992
vt 0.682511 0.333895
vt 0.688375 0.001992
vt 0.730593 0.001992
vt 0.730593 0.333895
vt 0.688375 0.333895
vt 0.777392 0.001992
vt 0.777392 0.333895
vt 0.824192 0.001992
vt 0.824192 0.333895
vt 0.866410 0.001992
vt 0.866410 0.333895
vt 0.001886 0.001992
vt 0.001886 0.333895
vn 0.009701 -0.999948 -0.003152
vn 0.008252 -0.999948 -0.005995
vn 0.008252 -0.999948 -0.005995
vn 0.009701 -0.999948 -0.003152
vn 0.008252 -0.999948 -0.005995
vn 0.005996 -0.999948 -0.008251
vn 0.005996 -0.999948 -0.008251
vn 0.008252 -0.999948 -0.005995
vn 0.005996 -0.999948 -0.008251
vn 0.003152 -0.999948 -0.009699
vn 0.003152 -0.999948 -0.009699
vn 0.005996 -0.999948 -0.008251
vn 0.003152 -0.999948 -0.009699
vn 0.000000 -0.999948 -0.010199
vn 0.000000 -0.999948 -0.010199
vn 0.003152 -0.999948 -0.009699
vn 0.000000 -0.999948 -0.010199
vn -0.003152 -0.999948 -0.009699
vn -0.003152 -0.999948 -0.009699
vn 0.000000 -0.999948 -0.010199
vn -0.003152 -0.999948 -0.009699
vn -0.005996 -0.999948 -0.008251
vn -0.005996 -0.999948 -0.008251
vn -0.003152 -0.999948 -0.009699
vn -0.005996 -0.999948 -0.008251
vn -0.008252 -0.999948 -0.005995
vn -0.008252 -0.999948 -0.005995
vn -0.005996 -0.999948 -0.008251
vn -0.008252 -0.999948 -0.005995
vn -0.009701 -0.999948 -0.003152
vn -0.009701 -0.999948 -0.003152
vn -0.008252 -0.999948 -0.005995
vn -0.009701 -0.999948 -0.003152
vn -0.010200 -0.999948 0.000000
vn -0.010200 -0.999948 0.000000
vn -0.009701 -0.999948 -0.003152
vn -0.010200 -0.999948 0.000000
vn -0.009701 -0.999948 0.003152
vn -0.009701 -0.999948 0.003152
vn -0.010200 -0.999948 0.000000
vn -0.009701 -0.999948 0.003152
vn -0.008252 -0.999948 0.005995
vn -0.008252 -0.999948 0.005995
vn -0.009701 -0.999948 0.003152
vn -0.008252 -0.999948 0.005995
vn -0.005996 -0.999948 0.008251
vn -0.005996 -0.999948 0.008251
vn -0.008252 -0.999948 0.005995
vn -0.005996 -0.999948 0.008251
vn -0.003152 -0.999948 0.009699
vn -0.003152 -0.999948 0.009699
vn -0.005996 -0.999948 0.008251
vn -0.003152 -0.999948 0.009699
vn 0.000000 -0.999948 0.010199
vn 0.000000 -0.999948 0.010199
vn -0.003152 -0.999948 0.009699
vn 0.000000 -0.999948 0.010199
vn 0.003152 -0.999948 0.009699
vn 0.003152 -0.999948 0.009699
vn 0.000000 -0.999948 0.010199
vn 0.003152 -0.999948 0.009699
vn 0.005996 -0.999948 0.008251
vn 0.005996 -0.999948 0.008251
vn 0.003152 -0.999948 0.009699
vn 0.005996 -0.999948 0.008251
vn 0.008252 -0.999948 0.005995
vn 0.008252 -0.999948 0.005995
vn 0.005996 -0.999948 0.008251
vn 0.008252 -0.999948 0.005995
vn 0.009701 -0.999948 0.003152
vn 0.009701 -0.999948 0.003152
vn 0.008252 -0.999948 0.005995
vn 0.009701 -0.999948 0.003152
vn 0.010200 -0.999948 0.000000
vn 0.010200 -0.999948 0.000000
vn 0.009701 -0.999948 0.003152
vn 0.010200 -0.999948 0.000000
vn 0.009701 -0.999948 -0.003152
vn 0.009701 -0.999948 -0.003152
vn 0.010200 -0.999948 0.000000
vn 0.951073 0.000000 -0.308967
vn 0.809066 0.000000 -0.587717
vn 0.809066 0.000000 -0.587717
vn 0.951073 0.000000 -0.308967
vn 0.809066 0.000000 -0.587717
vn 0.587852 0.000000 -0.808968
vn 0.587852 0.000000 -0.808968
vn 0.809066 0.000000 -0.587717
vn 0.587852 0.000000 -0.808968
vn 0.309066 0.000000 -0.951041
vn 0.309066 0.000000 -0.951041
vn 0.587852 0.000000 -0.808968
vn 0.309066 0.000000 -0.951041
vn 0.000000 0.000000 -1.000000
vn 0.000000 0.000000 -1.000000
vn 0.309066 0.000000 -0.951041
vn 0.000000 0.000000 -1.000000
vn -0.309066 0.000000 -0.951041
vn -0.309066 0.000000 -0.951041
vn 0.000000 0.000000 -1.000000
vn -0.309066 0.000000 -0.951041
vn -0.587853 0.000000 -0.808968
vn -0.587853 0.000000 -0.808968
vn -0.309066 0.000000 -0.951041
vn -0.587853 0.000000 -0.808968
vn -0.809067 0.000000 -0.587717
vn -0.809067 0.000000 -0.587717
vn -0.587853 0.000000 -0.808968
vn -0.809067 0.000000 -0.587717
vn -0.951073 0.000000 -0.308967
vn -0.951073 0.000000 -0.308967
vn -0.809067 0.000000 -0.587717
vn -0.951073 0.000000 -0.308967
vn -1.000000 0.000000 0.000000
vn -1.000000 0.000000 0.000000
vn -0.951073 0.000000 -0.308967
vn -1.000000 0.000000 0.000000
vn -0.951073 0.000000 0.308967
vn -0.951073 0.000000 0.308967
vn -1.000000 0.000000 0.000000
vn -0.951073 0.000000 0.308967
vn -0.809066 0.000000 0.587717
vn -0.809066 0.000000 0.587717
vn -0.951073 0.000000 0.308967
vn -0.809066 0.000000 0.587717
vn -0.587853 0.000000 0.808968
vn -0.587853 0.000000 0.808968
vn -0.809066 0.000000 0.587717
vn -0.587853 0.000000 0.808968
vn -0.309066 0.000000 0.951041
vn -0.309066 0.000000 0.951041
vn -0.587853 0.000000 0.808968
vn -0.309066 0.000000 0.951041
vn 0.000000 0.000000 1.000000
vn 0.000000 0.000000 1.000000
vn -0.309066 0.000000 0.951041
vn 0.000000 0.000000 1.000000
vn 0.309066 0.000000 0.951041
vn 0.309066 0.000000 0.951041
vn 0.000000 0.000000 1.000000
vn 0.309066 0.000000 0.951041
vn 0.587853 0.000000 0.808968
vn 0.587853 0.000000 0.808968
vn 0.309066 0.000000 0.951041
vn 0.587853 0.000000 0.808968
vn 0.809066 0.000000 0.587717
vn 0.809066 0.000000 0.587717
vn 0.587853 0.000000 0.808968
vn 0.809066 0.000000 0.587717
vn 0.951073 0.000000 0.308967
vn 0.951073 0.000000 0.308967
vn 0.809066 0.000000 0.587717
vn 0.951073 0.000000 0.308967
vn 1.000000 0.000000 0.000001
vn 1.000000 0.000000 0.000001
vn 0.951073 0.000000 0.308967
vn 1.000000 0.000000 0.000001
vn 0.951073 0.000000 -0.308967
vn 0.951073 0.000000 -0.308967
vn 1.000000 0.000000 0.000001
vn 0.009701 0.999948 -0.003152
vn 0.008252 0.999948 -0.005995
vn 0.008252 0.999948 -0.005995
vn 0.009701 0.999948 -0.003152
vn 0.008252 0.999948 -0.005995
vn 0.005996 0.999948 -0.008251
vn 0.005996 0.999948 -0.008251
vn 0.008252 0.999948 -0.005995
vn 0.005996 0.999948 -0.008251
vn 0.003152 0.999948 -0.009699
vn 0.003152 0.999948 -0.009699
vn 0.005996 0.999948 -0.008251
vn 0.003152 0.999948 -0.009699
vn -0.000000 0.999948 -0.010199
vn 0.000000 0.999948 -0.010199
vn 0.003152 0.999948 -0.009699
vn -0.000000 0.999948 -0.010199
vn -0.003152 0.999948 -0.009699
vn -0.003152 0.999948 -0.009699
vn 0.000000 0.999948 -0.010199
vn -0.003152 0.999948 -0.009699
vn -0.005996 0.999948 -0.008251
vn -0.005996 0.999948 -0.008251
vn -0.003152 0.999948 -0.009699
vn -0.005996 0.999948 -0.008251
vn -0.008252 0.999948 -0.005995
vn -0.008252 0.999948 -0.005995
vn -0.005996 0.999948 -0.008251
vn -0.008252 0.999948 -0.005995
vn -0.009701 0.999948 -0.003152
vn -0.009701 0.999948 -0.003152
vn -0.008252 0.999948 -0.005995
vn -0.009701 0.999948 -0.003152
vn -0.010200 0.999948 -0.000000
vn -0.010200 0.999948 -0.000000
vn -0.009701 0.999948 -0.003152
vn -0.010200 0.999948 -0.000000
vn -0.009701 0.999948 0.003152
vn -0.009701 0.999948 0.003152
vn -0.010200 0.999948 -0.000000
vn -0.009701 0.999948 0.003152
vn -0.008252 0.999948 0.005995
vn -0.008252 0.999948 0.005995
vn -0.009701 0.999948 0.003152
vn -0.008252 0.999948 0.005995
vn -0.005996 0.999948 0.008251
vn -0.005996 0.999948 0.008251
vn -0.008252 0.999948 0.005995
vn -0.005996 0.999948 0.008251
vn -0.003152 0.999948 0.009699
vn -0.003152 0.999948 0.009699
vn -0.005996 0.999948 0.008251
vn -0.003152 0.999948 0.009699
vn 0.000000 0.999948 0.010199
vn 0.000000 0.999948 0.010199
vn -0.003152 0.999948 0.009699
vn 0.000000 0.999948 0.010199
vn 0.003152 0.999948 0.009699
vn 0.003152 0.999948 0.009699
vn 0.000000 0.999948 0.010199
vn 0.003152 0.999948 0.009699
vn 0.005996 0.999948 0.008251
vn 0.005996 0.999948 0.008251
vn 0.003152 0.999948 0.009699
vn 0.005996 0.999948 0.008251
vn 0.008252 0.999948 0.005995
vn 0.008252 0.999948 0.005995
vn 0.005996 0.999948 0.008251
vn 0.008252 0.999948 0.005995
vn 0.009701 0.999948 0.003152
vn 0.009701 0.999948 0.003152
vn 0.008252 0.999948 0.005995
vn 0.009701 0.999948 0.003152
vn 0.010200 0.999948 0.000000
vn 0.010200 0.999948 0.000000
vn 0.009701 0.999948 0.003152
vn 0.010200 0.999948 0.000000
vn 0.009701 0.999948 -0.003152
vn 0.009701 0.999948 -0.003152
vn 0.010200 0.999948 0.000000
vn -0.891039 0.000000 0.453927
vn -0.891039 0.000000 0.453927
vn -0.891039 0.000000 0.453927
vn -0.891039 0.000000 0.453927
vn -0.987693 0.000000 0.156405
vn -0.987693 0.000000 0.156405
vn -0.987693 0.000000 0.156405
vn -0.987693 0.000000 0.156405
vn -0.987693 0.000000 -0.156408
vn -0.987693 0.000000 -0.156408
vn -0.987693 0.000000 -0.156408
vn -0.987693 0.000000 -0.156408
vn -0.891039 0.000000 -0.453926
vn -0.891039 0.000000 -0.453926
vn -0.891039 0.000000 -0.453926
vn -0.891039 0.000000 -0.453926
vn -0.707169 0.000000 -0.707044
vn -0.707169 0.000000 -0.707044
vn -0.707169 0.000000 -0.707044
vn -0.707169 0.000000 -0.707044
vn -0.454054 0.000000 -0.890974
vn -0.454054 0.000000 -0.890974
vn -0.454054 0.000000 -0.890974
vn -0.454054 0.000000 -0.890974
vn -0.156461 0.000000 -0.987684
vn -0.156461 0.000000 -0.987684
vn -0.156461 0.000000 -0.987684
vn -0.156461 0.000000 -0.987684
vn 0.156461 0.000000 -0.987684
vn 0.156461 0.000000 -0.987684
vn 0.156461 0.000000 -0.987684
vn 0.156461 0.000000 -0.987684
vn 0.454054 0.000000 -0.890974
vn 0.454054 0.000000 -0.890974
vn 0.454054 0.000000 -0.890974
vn 0.454054 0.000000 -0.890974
vn 0.707169 0.000000 -0.707044
vn 0.707169 0.000000 -0.707044
vn 0.707169 0.000000 -0.707044
vn 0.707169 0.000000 -0.707044
vn 0.891039 0.000000 -0.453927
vn 0.891039 0.000000 -0.453927
vn 0.891039 0.000000 -0.453927
vn 0.891039 0.000000 -0.453927
vn 0.987693 0.000000 -0.156408
vn 0.987693 0.000000 -0.156408
vn 0.987693 0.000000 -0.156408
vn 0.987693 0.000000 -0.156408
vn 0.987693 0.000000 0.156408
vn 0.987693 0.000000 0.156408
vn 0.987693 0.000000 0.156408
vn 0.987693 0.000000 0.156408
vn 0.891039 0.000000 0.453926
vn 0.891039 0.000000 0.453926
vn 0.891039 0.000000 0.453926
vn 0.891039 0.000000 0.453926
vn 0.707169 0.000000 0.707044
vn 0.707169 0.000000 0.707044
vn 0.707169 0.000000 0.707044
vn 0.707169 0.000000 0.707044
vn 0.454054 0.000000 0.890974
vn 0.454054 0.000000 0.890974
vn 0.454054 0.000000 0.890974
vn 0.454054 0.000000 0.890974
vn 0.156461 0.000000 0.987684
vn 0.156461 0.000000 0.987684
vn 0.156461 0.000000 0.987684
vn 0.156461 0.000000 0.987684
vn -0.156461 0.000000 0.987684
vn -0.156461 0.000000 0.987684
vn -0.156461 0.000000 0.987684
vn -0.156461 0.000000 0.987684
vn -0.454054 0.000000 0.890974
vn -0.454054 0.000000 0.890974
vn -0.454054 0.000000 0.890974
vn -0.454054 0.000000 0.890974
vn -0.707169 0.000000 0.707045
vn -0.707169 0.000000 0.707045
vn -0.707169 0.000000 0.707045
vn -0.707169 0.000000 0.707045
s off
g segurancabancoelevador:pCylinder7
usemtl lambert6SG
f 1/1/1 2/2/2 22/3/3 21/4/4
f 2/2/5 3/5/6 23/6/7 22/3/8
f 3/5/9 4/7/10 24/8/11 23/6/12
f 4/7/13 5/9/14 25/10/15 24/8/16
f 5/9/17 6/11/18 26/12/19 25/10/20
f 6/11/21 7/13/22 27/14/23 26/12/24
f 7/13/25 8/15/26 28/16/27 27/14/28
f 8/15/29 9/17/30 29/18/31 28/16/32
f 9/17/33 10/19/34 30/20/35 29/18/36
f 10/19/37 11/21/38 31/22/39 30/20/40
f 11/21/41 12/23/42 32/24/43 31/22/44
f 12/23/45 13/25/46 33/26/47 32/24/48
f 13/25/49 14/27/50 34/28/51 33/26/52
f 14/27/53 15/29/54 35/30/55 34/28/56
f 15/29/57 16/31/58 36/32/59 35/30/60
f 16/31/61 17/33/62 37/34/63 36/32/64
f 17/33/65 18/35/66 38/36/67 37/34/68
f 18/35/69 19/37/70 39/38/71 38/36/72
f 19/37/73 20/39/74 40/40/75 39/38/76
f 20/39/77 1/1/78 21/4/79 40/40/80
f 21/41/81 22/42/82 42/43/83 41/44/84
f 22/42/85 23/45/86 43/46/87 42/43/88
f 23/47/89 24/48/90 44/49/91 43/50/92
f 24/48/93 25/51/94 45/52/95 44/49/96
f 25/51/97 26/53/98 46/54/99 45/52/100
f 26/53/101 27/55/102 47/56/103 46/54/104
f 27/57/105 28/58/106 48/59/107 47/60/108
f 28/58/109 29/61/110 49/62/111 48/59/112
f 29/61/113 30/63/114 50/64/115 49/62/116
f 30/63/117 31/65/118 51/66/119 50/64/120
f 31/65/121 32/67/122 52/68/123 51/66/124
f 32/67/125 33/69/126 53/70/127 52/68/128
f 33/71/129 34/72/130 54/73/131 53/74/132
f 34/72/133 35/75/134 55/76/135 54/73/136
f 35/75/137 36/77/138 56/78/139 55/76/140
f 36/77/141 37/79/142 57/80/143 56/78/144
f 37/81/145 38/82/146 58/83/147 57/84/148
f 38/82/149 39/85/150 59/86/151 58/83/152
f 39/85/153 40/87/154 60/88/155 59/86/156
f 40/87/157 21/41/158 41/44/159 60/88/160
f 41/89/161 42/90/162 62/91/163 61/92/164
f 42/90/165 43/93/166 63/94/167 62/91/168
f 43/93/169 44/95/170 64/96/171 63/94/172
f 44/95/173 45/97/174 65/98/175 64/96/176
f 45/97/177 46/99/178 66/100/179 65/98/180
f 46/99/181 47/101/182 67/102/183 66/100/184
f 47/101/185 48/103/186 68/104/187 67/102/188
f 48/103/189 49/105/190 69/106/191 68/104/192
f 49/105/193 50/107/194 70/108/195 69/106/196
f 50/107/197 51/109/198 71/110/199 70/108/200
f 51/109/201 52/111/202 72/112/203 71/110/204
f 52/111/205 53/113/206 73/114/207 72/112/208
f 53/113/209 54/115/210 74/116/211 73/114/212
f 54/115/213 55/117/214 75/118/215 74/116/216
f 55/117/217 56/119/218 76/120/219 75/118/220
f 56/119/221 57/121/222 77/122/223 76/120/224
f 57/121/225 58/123/226 78/124/227 77/122/228
f 58/123/229 59/125/230 79/126/231 78/124/232
f 59/125/233 60/127/234 80/128/235 79/126/236
f 60/127/237 41/89/238 61/92/239 80/128/240
f 2/129/241 1/130/242 61/131/243 62/132/244
f 1/130/245 20/133/246 80/134/247 61/131/248
f 20/133/249 19/135/250 79/136/251 80/134/252
f 19/135/253 18/137/254 78/138/255 79/136/256
f 18/137/257 17/139/258 77/140/259 78/138/260
f 17/141/261 16/142/262 76/143/263 77/144/264
f 16/142/265 15/145/266 75/146/267 76/143/268
f 15/145/269 14/147/270 74/148/271 75/146/272
f 14/147/273 13/149/274 73/150/275 74/148/276
f 13/151/277 12/152/278 72/153/279 73/154/280
f 12/152/281 11/155/282 71/156/283 72/153/284
f 11/155/285 10/157/286 70/158/287 71/156/288
f 10/157/289 9/159/290 69/160/291 70/158/292
f 9/159/293 8/161/294 68/162/295 69/160/296
f 8/161/297 7/163/298 67/164/299 68/162/300
f 7/165/301 6/166/302 66/167/303 67/168/304
f 6/166/305 5/169/306 65/170/307 66/167/308
f 5/169/309 4/171/310 64/172/311 65/170/312
f 4/171/313 3/173/314 63/174/315 64/172/316
f 3/175/317 2/129/318 62/132/319 63/176/320
