# This file uses centimeters as units for non-parametric coordinates.

mtllib grama.mtl
g default
v 6.253164 -0.740906 -2.024681
v 5.322520 -0.740906 -3.851171
v 3.873009 -0.740906 -5.300683
v 2.046518 -0.740906 -6.231326
v 0.021837 -0.740906 -6.552003
v -2.002843 -0.740906 -6.231325
v -3.829333 -0.740906 -5.300681
v -5.278844 -0.740906 -3.851170
v -6.209487 -0.740906 -2.024680
v -6.530164 -0.740906 0.000000
v -6.209487 -0.740906 2.024680
v -5.278843 -0.740906 3.851170
v -3.829332 -0.740906 5.300680
v -2.002842 -0.740906 6.231323
v 0.021837 -0.740906 6.552001
v 2.046517 -0.740906 6.231323
v 3.873006 -0.740906 5.300680
v 5.322517 -0.740906 3.851169
v 6.253160 -0.740906 2.024679
v 6.573837 -0.740906 0.000000
v 6.253164 0.173552 -2.024681
v 5.322520 0.173552 -3.851171
v 3.873009 0.173552 -5.300683
v 2.046518 0.173552 -6.231326
v 0.021837 0.173552 -6.552003
v -2.002843 0.173552 -6.231325
v -3.829333 0.173552 -5.300681
v -5.278844 0.173552 -3.851170
v -6.209487 0.173552 -2.024680
v -6.530164 0.173552 0.000000
v -6.209487 0.173552 2.024680
v -5.278843 0.173552 3.851170
v -3.829332 0.173552 5.300680
v -2.002842 0.173552 6.231323
v 0.021837 0.173552 6.552001
v 2.046517 0.173552 6.231323
v 3.873006 0.173552 5.300680
v 5.322517 0.173552 3.851169
v 6.253160 0.173552 2.024679
v 6.573837 0.173552 0.000000
v 0.021837 -0.740906 0.000000
v 0.021837 0.173552 0.000000
vt 0.346220 0.625867
vt 0.346220 0.556706
vt 0.408244 0.556706
vt 0.408244 0.625867
vt 0.346220 0.501820
vt 0.408244 0.501820
vt 0.346220 0.702532
vt 0.408244 0.702532
vt 0.346220 0.779197
vt 0.408244 0.779197
vt 0.346220 0.848358
vt 0.408244 0.848358
vt 0.346220 0.903244
vt 0.408244 0.903244
vt 0.278602 0.848358
vt 0.278602 0.779197
vt 0.340626 0.779197
vt 0.340626 0.848358
vt 0.278602 0.702532
vt 0.340626 0.702532
vt 0.278602 0.903244
vt 0.340626 0.903244
vt 0.278602 0.625867
vt 0.340626 0.625867
vt 0.278602 0.556706
vt 0.340626 0.556706
vt 0.278602 0.501820
vt 0.340626 0.501820
vt 0.450623 0.104260
vt 0.485862 0.173421
vt 0.249910 0.250086
vt 0.498004 0.250086
vt 0.395737 0.049374
vt 0.485862 0.326751
vt 0.326576 0.014135
vt 0.450623 0.395912
vt 0.249910 0.001992
vt 0.395736 0.450798
vt 0.173245 0.014135
vt 0.326576 0.486038
vt 0.104084 0.049374
vt 0.249910 0.498180
vt 0.049198 0.104260
vt 0.173245 0.486038
vt 0.013959 0.173421
vt 0.104084 0.450798
vt 0.001816 0.250086
vt 0.049198 0.395912
vt 0.013959 0.326751
vt 0.897884 0.826579
vt 0.862645 0.895740
vt 0.661932 0.749914
vt 0.807758 0.950626
vt 0.910026 0.749914
vt 0.738598 0.985865
vt 0.897884 0.673248
vt 0.661932 0.998008
vt 0.862645 0.604088
vt 0.585267 0.985865
vt 0.807758 0.549201
vt 0.516106 0.950626
vt 0.738598 0.513962
vt 0.461220 0.895740
vt 0.661932 0.501820
vt 0.425981 0.826579
vt 0.585267 0.513962
vt 0.413838 0.749914
vt 0.516106 0.549201
vt 0.425981 0.673248
vt 0.461220 0.604088
vt 0.273008 0.501820
vt 0.273008 0.570980
vt 0.210984 0.570980
vt 0.210984 0.501820
vt 0.273008 0.647646
vt 0.210984 0.647646
vt 0.273008 0.724311
vt 0.210984 0.724311
vt 0.273008 0.793472
vt 0.210984 0.793472
vt 0.143367 0.793472
vt 0.143367 0.724311
vt 0.205390 0.724311
vt 0.205390 0.793472
vt 0.143367 0.647646
vt 0.205390 0.647646
vt 0.143367 0.570980
vt 0.205390 0.570980
vt 0.143367 0.501820
vt 0.205390 0.501820
vn 0.951057 0.000000 -0.309016
vn 0.809017 0.000000 -0.587785
vn 0.809017 0.000000 -0.587785
vn 0.951057 0.000000 -0.309016
vn 0.587785 0.000000 -0.809017
vn 0.587785 0.000000 -0.809017
vn 0.309017 0.000000 -0.951057
vn 0.309017 0.000000 -0.951057
vn -0.000000 0.000000 -1.000000
vn -0.000000 0.000000 -1.000000
vn -0.309017 0.000000 -0.951056
vn -0.309017 0.000000 -0.951056
vn -0.587785 0.000000 -0.809017
vn -0.587785 0.000000 -0.809017
vn -0.809017 0.000000 -0.587785
vn -0.809017 0.000000 -0.587785
vn -0.951057 0.000000 -0.309017
vn -0.951057 0.000000 -0.309017
vn -1.000000 0.000000 0.000000
vn -1.000000 0.000000 0.000000
vn -0.951056 0.000000 0.309017
vn -0.951056 0.000000 0.309017
vn -0.809017 0.000000 0.587785
vn -0.809017 0.000000 0.587785
vn -0.587785 0.000000 0.809017
vn -0.587785 0.000000 0.809017
vn -0.309017 0.000000 0.951056
vn -0.309017 0.000000 0.951056
vn 0.000000 0.000000 1.000000
vn 0.000000 0.000000 1.000000
vn 0.309017 0.000000 0.951056
vn 0.309017 0.000000 0.951056
vn 0.587785 0.000000 0.809017
vn 0.587785 0.000000 0.809017
vn 0.809017 0.000000 0.587785
vn 0.809017 0.000000 0.587785
vn 0.951056 0.000000 0.309017
vn 0.951056 0.000000 0.309017
vn 1.000000 0.000000 0.000001
vn 1.000000 0.000000 0.000001
vn 0.000000 -1.000000 0.000000
vn 0.000000 -1.000000 0.000000
vn 0.000000 -1.000000 0.000000
vn 0.000000 -1.000000 0.000000
vn 0.000000 -1.000000 0.000000
vn 0.000000 -1.000000 0.000000
vn 0.000000 -1.000000 0.000000
vn 0.000000 -1.000000 0.000000
vn 0.000000 -1.000000 0.000000
vn 0.000000 -1.000000 0.000000
vn 0.000000 -1.000000 0.000000
vn 0.000000 -1.000000 0.000000
vn 0.000000 -1.000000 0.000000
vn 0.000000 -1.000000 0.000000
vn 0.000000 -1.000000 0.000000
vn 0.000000 -1.000000 0.000000
vn 0.000000 -1.000000 0.000000
vn 0.000000 -1.000000 0.000000
vn 0.000000 -1.000000 0.000000
vn 0.000000 -1.000000 0.000000
vn 0.000000 -1.000000 0.000000
vn 0.000000 1.000000 0.000000
vn 0.000000 1.000000 0.000000
vn 0.000000 1.000000 0.000000
vn 0.000000 1.000000 0.000000
vn 0.000000 1.000000 0.000000
vn 0.000000 1.000000 0.000000
vn 0.000000 1.000000 0.000000
vn 0.000000 1.000000 0.000000
vn 0.000000 1.000000 0.000000
vn 0.000000 1.000000 0.000000
vn 0.000000 1.000000 0.000000
vn 0.000000 1.000000 0.000000
vn 0.000000 1.000000 0.000000
vn 0.000000 1.000000 0.000000
vn 0.000000 1.000000 0.000000
vn 0.000000 1.000000 0.000000
vn 0.000000 1.000000 0.000000
vn 0.000000 1.000000 0.000000
vn 0.000000 1.000000 0.000000
vn 0.000000 1.000000 0.000000
vn 0.000000 1.000000 0.000000
s 1
g pCylinder32
usemtl lambert15SG
f 1/1/1 2/2/2 22/3/3 21/4/4
f 2/2/2 3/5/5 23/6/6 22/3/3
f 3/71/5 4/72/7 24/73/8 23/74/6
f 4/72/7 5/75/9 25/76/10 24/73/8
f 5/75/9 6/77/11 26/78/12 25/76/10
f 6/77/11 7/79/13 27/80/14 26/78/12
f 7/21/13 8/15/15 28/18/16 27/22/14
f 8/15/15 9/16/17 29/17/18 28/18/16
f 9/16/17 10/19/19 30/20/20 29/17/18
f 10/19/19 11/23/21 31/24/22 30/20/20
f 11/23/21 12/25/23 32/26/24 31/24/22
f 12/25/23 13/27/25 33/28/26 32/26/24
f 13/81/25 14/82/27 34/83/28 33/84/26
f 14/82/27 15/85/29 35/86/30 34/83/28
f 15/85/29 16/87/31 36/88/32 35/86/30
f 16/87/31 17/89/33 37/90/34 36/88/32
f 17/13/33 18/11/35 38/12/36 37/14/34
f 18/11/35 19/9/37 39/10/38 38/12/36
f 19/9/37 20/7/39 40/8/40 39/10/38
f 20/7/39 1/1/1 21/4/4 40/8/40
s 2
f 2/29/41 1/30/42 41/31/43
f 3/33/44 2/29/41 41/31/43
f 4/35/45 3/33/44 41/31/43
f 5/37/46 4/35/45 41/31/43
f 6/39/47 5/37/46 41/31/43
f 7/41/48 6/39/47 41/31/43
f 8/43/49 7/41/48 41/31/43
f 9/45/50 8/43/49 41/31/43
f 10/47/51 9/45/50 41/31/43
f 11/49/52 10/47/51 41/31/43
f 12/48/53 11/49/52 41/31/43
f 13/46/54 12/48/53 41/31/43
f 14/44/55 13/46/54 41/31/43
f 15/42/56 14/44/55 41/31/43
f 16/40/57 15/42/56 41/31/43
f 17/38/58 16/40/57 41/31/43
f 18/36/59 17/38/58 41/31/43
f 19/34/60 18/36/59 41/31/43
f 20/32/61 19/34/60 41/31/43
f 1/30/42 20/32/61 41/31/43
s 3
f 21/50/62 22/51/63 42/52/64
f 22/51/63 23/53/65 42/52/64
f 23/53/65 24/55/66 42/52/64
f 24/55/66 25/57/67 42/52/64
f 25/57/67 26/59/68 42/52/64
f 26/59/68 27/61/69 42/52/64
f 27/61/69 28/63/70 42/52/64
f 28/63/70 29/65/71 42/52/64
f 29/65/71 30/67/72 42/52/64
f 30/67/72 31/69/73 42/52/64
f 31/69/73 32/70/74 42/52/64
f 32/70/74 33/68/75 42/52/64
f 33/68/75 34/66/76 42/52/64
f 34/66/76 35/64/77 42/52/64
f 35/64/77 36/62/78 42/52/64
f 36/62/78 37/60/79 42/52/64
f 37/60/79 38/58/80 42/52/64
f 38/58/80 39/56/81 42/52/64
f 39/56/81 40/54/82 42/52/64
f 40/54/82 21/50/62 42/52/64
