# This file uses centimeters as units for non-parametric coordinates.

mtllib bancoelevador.mtl
g default
v 1.410177 1.283007 -0.458194
v 1.199568 1.283007 -0.871537
v 0.871537 1.283007 -1.199568
v 0.458194 1.283007 -1.410176
v 0.000000 1.283007 -1.482747
v -0.458194 1.283007 -1.410176
v -0.871537 1.283007 -1.199567
v -1.199567 1.283007 -0.871537
v -1.410176 1.283007 -0.458194
v -1.482747 1.283007 0.000000
v -1.410176 1.283007 0.458194
v -1.199567 1.283007 0.871537
v -0.871537 1.283007 1.199567
v -0.458194 1.283007 1.410176
v -0.000000 1.283007 1.482746
v 0.458194 1.283007 1.410176
v 0.871536 1.283007 1.199567
v 1.199567 1.283007 0.871536
v 1.410176 1.283007 0.458194
v 1.482746 1.283007 0.000000
v 2.127611 1.346303 -0.691303
v 1.809854 1.346303 -1.314936
v 1.314936 1.346303 -1.809854
v 0.691303 1.346303 -2.127611
v -0.000000 1.346303 -2.237102
v -0.691303 1.346303 -2.127610
v -1.314936 1.346303 -1.809853
v -1.809853 1.346303 -1.314936
v -2.127610 1.346303 -0.691303
v -2.237102 1.346303 -0.000000
v -2.127610 1.346303 0.691302
v -1.809853 1.346303 1.314935
v -1.314936 1.346303 1.809853
v -0.691303 1.346303 2.127609
v -0.000000 1.346303 2.237101
v 0.691302 1.346303 2.127609
v 1.314935 1.346303 1.809853
v 1.809853 1.346303 1.314935
v 2.127609 1.346303 0.691302
v 2.237101 1.346303 -0.000000
v 2.127611 1.735104 -0.691303
v 1.809854 1.735104 -1.314936
v 1.314936 1.735104 -1.809854
v 0.691303 1.735104 -2.127611
v -0.000000 1.735104 -2.237102
v -0.691303 1.735104 -2.127610
v -1.314936 1.735104 -1.809853
v -1.809853 1.735104 -1.314936
v -2.127610 1.735104 -0.691303
v -2.237102 1.735104 -0.000000
v -2.127610 1.735104 0.691302
v -1.809853 1.735104 1.314935
v -1.314936 1.735104 1.809853
v -0.691303 1.735104 2.127609
v -0.000000 1.735104 2.237101
v 0.691302 1.735104 2.127609
v 1.314935 1.735104 1.809853
v 1.809853 1.735104 1.314935
v 2.127609 1.735104 0.691302
v 2.237101 1.735104 -0.000000
v 1.410177 1.798400 -0.458194
v 1.199568 1.798400 -0.871537
v 0.871537 1.798400 -1.199568
v 0.458194 1.798400 -1.410176
v 0.000000 1.798400 -1.482747
v -0.458194 1.798400 -1.410176
v -0.871537 1.798400 -1.199567
v -1.199567 1.798400 -0.871537
v -1.410176 1.798400 -0.458194
v -1.482747 1.798400 0.000000
v -1.410176 1.798400 0.458194
v -1.199567 1.798400 0.871537
v -0.871537 1.798400 1.199567
v -0.458194 1.798400 1.410176
v -0.000000 1.798400 1.482746
v 0.458194 1.798400 1.410176
v 0.871536 1.798400 1.199567
v 1.199567 1.798400 0.871536
v 1.410176 1.798400 0.458194
v 1.482746 1.798400 0.000000
v 0.000000 1.283007 0.000000
v 1.410177 2.448754 -0.458194
v 1.199568 2.448754 -0.871537
v 0.000000 2.762134 0.000000
v 0.871537 2.448754 -1.199568
v 0.458194 2.448754 -1.410176
v 0.000000 2.448754 -1.482747
v -0.458194 2.448754 -1.410176
v -0.871537 2.448754 -1.199567
v -1.199567 2.448754 -0.871537
v -1.410176 2.448754 -0.458194
v -1.482747 2.448754 0.000000
v -1.410176 2.448754 0.458194
v -1.199567 2.448754 0.871537
v -0.871537 2.448754 1.199567
v -0.458194 2.448754 1.410176
v -0.000000 2.448754 1.482746
v 0.458194 2.448754 1.410176
v 0.871536 2.448754 1.199567
v 1.199567 2.448754 0.871536
v 1.410176 2.448754 0.458194
v 1.482746 2.448754 -0.000000
vt 0.142771 0.042914
vt 0.177872 0.042914
vt 0.177872 0.294747
vt 0.142771 0.294747
vt 0.129650 0.001916
vt 0.152915 0.001916
vt 0.205729 0.042914
vt 0.205729 0.294747
vt 0.152915 0.335745
vt 0.129650 0.335745
vt 0.103860 0.042914
vt 0.103860 0.294747
vt 0.103860 0.001916
vt 0.152915 0.756990
vt 0.129650 0.756990
vt 0.103860 0.335745
vt 0.064950 0.042914
vt 0.064950 0.294747
vt 0.078071 0.001916
vt 0.171379 0.335745
vt 0.171379 0.756990
vt 0.103860 0.959971
vt 0.103860 0.756990
vt 0.078071 0.335745
vt 0.029849 0.042914
vt 0.029849 0.294747
vt 0.054806 0.001916
vt 0.078071 0.756990
vt 0.054806 0.335745
vt 0.001992 0.042914
vt 0.001992 0.294747
vt 0.054806 0.756990
vt 0.036342 0.335745
vt 0.036342 0.756990
vt 0.240530 0.042914
vt 0.275632 0.042914
vt 0.275632 0.294747
vt 0.240530 0.294747
vt 0.265487 0.001916
vt 0.288753 0.001916
vt 0.314542 0.042914
vt 0.314542 0.294747
vt 0.288753 0.335745
vt 0.265487 0.335745
vt 0.212674 0.042914
vt 0.212674 0.294747
vt 0.314542 0.001916
vt 0.353453 0.042914
vt 0.353453 0.294747
vt 0.314542 0.335745
vt 0.288753 0.756990
vt 0.265487 0.756990
vt 0.340332 0.001916
vt 0.388554 0.042914
vt 0.388554 0.294747
vt 0.340332 0.335745
vt 0.314542 0.756990
vt 0.314542 0.959971
vt 0.247024 0.335745
vt 0.247024 0.756990
vt 0.363597 0.001916
vt 0.416411 0.042914
vt 0.416411 0.294747
vt 0.363597 0.335745
vt 0.340332 0.756990
vt 0.363597 0.756990
vt 0.382060 0.335745
vt 0.382060 0.756990
vt 0.803034 0.078778
vt 0.784571 0.060314
vt 0.809528 0.025964
vt 0.837385 0.053821
vt 0.735516 0.127833
vt 0.761306 0.048460
vt 0.774426 0.008079
vt 0.814889 0.102043
vt 0.735516 0.044375
vt 0.735516 0.001916
vt 0.818973 0.127833
vt 0.709726 0.048460
vt 0.696606 0.008079
vt 0.814888 0.153622
vt 0.686461 0.060314
vt 0.661504 0.025964
vt 0.803034 0.176887
vt 0.667998 0.078778
vt 0.633648 0.053821
vt 0.784571 0.195351
vt 0.837384 0.201844
vt 0.809528 0.229701
vt 0.761306 0.207205
vt 0.656143 0.102043
vt 0.774426 0.247586
vt 0.735516 0.211290
vt 0.652059 0.127833
vt 0.735516 0.253749
vt 0.709726 0.207205
vt 0.656143 0.153622
vt 0.696606 0.247586
vt 0.686461 0.195351
vt 0.667998 0.176887
vt 0.661504 0.229701
vt 0.633648 0.201844
vt 0.791945 0.257740
vt 0.819801 0.285597
vt 0.785451 0.310554
vt 0.766988 0.292091
vt 0.837686 0.320699
vt 0.797305 0.333819
vt 0.843849 0.359609
vt 0.801390 0.359609
vt 0.837686 0.398519
vt 0.797305 0.385399
vt 0.819801 0.433621
vt 0.785451 0.408664
vt 0.791945 0.461477
vt 0.766988 0.427127
vt 0.735895 0.461477
vt 0.708039 0.433620
vt 0.742389 0.408664
vt 0.760852 0.427127
vt 0.690154 0.398519
vt 0.730535 0.385398
vt 0.683991 0.359609
vt 0.726450 0.359609
vt 0.690154 0.320698
vt 0.730535 0.333819
vt 0.708039 0.285597
vt 0.742389 0.310554
vt 0.735895 0.257740
vt 0.760852 0.292090
vt 0.992158 0.253749
vt 0.957056 0.253749
vt 0.957056 0.001916
vt 0.992158 0.001916
vt 0.918146 0.253749
vt 0.918146 0.001916
vt 0.879236 0.253749
vt 0.879236 0.001916
vt 0.844134 0.253749
vt 0.844134 0.001916
vt 0.849984 0.257740
vt 0.885086 0.257740
vt 0.885086 0.509573
vt 0.849984 0.509573
vt 0.923996 0.257740
vt 0.923996 0.509573
vt 0.962906 0.257740
vt 0.962906 0.509573
vt 0.998008 0.257740
vt 0.998008 0.509573
vt 0.521270 0.204897
vt 0.498005 0.204897
vt 0.472215 0.001916
vt 0.521270 0.626142
vt 0.498005 0.626142
vt 0.472215 0.204897
vt 0.472215 0.626142
vt 0.446426 0.204897
vt 0.446426 0.626142
vt 0.423161 0.204897
vt 0.423161 0.626142
vt 0.528404 0.423161
vt 0.551669 0.423161
vt 0.577459 0.626142
vt 0.528404 0.001916
vt 0.551669 0.001916
vt 0.577459 0.423161
vt 0.577459 0.001916
vt 0.603249 0.423161
vt 0.603249 0.001916
vt 0.626514 0.423161
vt 0.626514 0.001916
vn 0.048072 -0.998722 -0.015619
vn 0.040892 -0.998722 -0.029710
vn 0.067645 -0.996498 -0.049147
vn 0.079521 -0.996498 -0.025838
vn 0.029710 -0.998722 -0.040892
vn 0.049147 -0.996498 -0.067645
vn 0.015620 -0.998722 -0.048072
vn 0.025838 -0.996498 -0.079521
vn -0.000000 -0.998722 -0.050546
vn -0.000000 -0.996498 -0.083614
vn -0.015620 -0.998722 -0.048072
vn -0.025838 -0.996498 -0.079521
vn -0.029710 -0.998722 -0.040892
vn -0.049147 -0.996498 -0.067645
vn -0.040892 -0.998722 -0.029710
vn -0.067645 -0.996498 -0.049147
vn -0.048072 -0.998722 -0.015620
vn -0.079521 -0.996498 -0.025838
vn -0.050546 -0.998722 0.000000
vn -0.083614 -0.996498 -0.000000
vn -0.048072 -0.998722 0.015620
vn -0.079521 -0.996498 0.025838
vn -0.040892 -0.998722 0.029710
vn -0.067645 -0.996498 0.049147
vn -0.029710 -0.998722 0.040892
vn -0.049147 -0.996498 0.067645
vn -0.015620 -0.998722 0.048072
vn -0.025838 -0.996498 0.079521
vn 0.000000 -0.998722 0.050546
vn -0.000000 -0.996498 0.083614
vn 0.015620 -0.998722 0.048072
vn 0.025838 -0.996498 0.079521
vn 0.029710 -0.998722 0.040892
vn 0.049147 -0.996498 0.067645
vn 0.040892 -0.998722 0.029710
vn 0.067645 -0.996498 0.049147
vn 0.048072 -0.998722 0.015620
vn 0.079521 -0.996498 0.025838
vn 0.050546 -0.998722 0.000000
vn 0.083614 -0.996498 0.000000
vn 0.951057 0.000000 -0.309016
vn 0.809017 0.000000 -0.587785
vn 0.809017 0.000000 -0.587785
vn 0.951057 0.000000 -0.309016
vn 0.587785 0.000000 -0.809017
vn 0.587785 0.000000 -0.809017
vn 0.309017 0.000000 -0.951057
vn 0.309017 0.000000 -0.951057
vn -0.000000 0.000000 -1.000000
vn -0.000000 0.000000 -1.000000
vn -0.309017 0.000000 -0.951056
vn -0.309017 0.000000 -0.951056
vn -0.587785 0.000000 -0.809017
vn -0.587785 0.000000 -0.809017
vn -0.809017 0.000000 -0.587785
vn -0.809017 0.000000 -0.587785
vn -0.951057 0.000000 -0.309017
vn -0.951057 0.000000 -0.309017
vn -1.000000 0.000000 0.000000
vn -1.000000 0.000000 0.000000
vn -0.951056 0.000000 0.309017
vn -0.951056 0.000000 0.309017
vn -0.809017 0.000000 0.587785
vn -0.809017 0.000000 0.587785
vn -0.587785 0.000000 0.809017
vn -0.587785 0.000000 0.809017
vn -0.309017 0.000000 0.951057
vn -0.309017 0.000000 0.951057
vn 0.000000 0.000000 1.000000
vn 0.000000 0.000000 1.000000
vn 0.309017 0.000000 0.951057
vn 0.309017 0.000000 0.951057
vn 0.587785 0.000000 0.809017
vn 0.587785 0.000000 0.809017
vn 0.809017 0.000000 0.587785
vn 0.809017 0.000000 0.587785
vn 0.951056 0.000000 0.309017
vn 0.951056 0.000000 0.309017
vn 1.000000 0.000000 0.000001
vn 1.000000 0.000000 0.000001
vn 0.079521 0.996498 -0.025838
vn 0.067645 0.996498 -0.049147
vn 0.067645 0.996498 -0.049147
vn 0.079521 0.996498 -0.025838
vn 0.049147 0.996498 -0.067645
vn 0.049147 0.996498 -0.067645
vn 0.025838 0.996498 -0.079521
vn 0.025838 0.996498 -0.079521
vn -0.000000 0.996498 -0.083614
vn -0.000000 0.996498 -0.083614
vn -0.025838 0.996498 -0.079521
vn -0.025838 0.996498 -0.079521
vn -0.049147 0.996498 -0.067645
vn -0.049147 0.996498 -0.067645
vn -0.067645 0.996498 -0.049147
vn -0.067645 0.996498 -0.049147
vn -0.079521 0.996498 -0.025838
vn -0.079521 0.996498 -0.025838
vn -0.083614 0.996498 -0.000000
vn -0.083614 0.996498 0.000000
vn -0.079521 0.996498 0.025838
vn -0.079521 0.996498 0.025838
vn -0.067645 0.996498 0.049147
vn -0.067645 0.996498 0.049147
vn -0.049147 0.996498 0.067645
vn -0.049147 0.996498 0.067645
vn -0.025838 0.996498 0.079521
vn -0.025838 0.996498 0.079521
vn -0.000000 0.996498 0.083614
vn 0.000000 0.996498 0.083614
vn 0.025838 0.996498 0.079521
vn 0.025838 0.996498 0.079521
vn 0.049147 0.996498 0.067645
vn 0.049147 0.996498 0.067645
vn 0.067645 0.996498 0.049147
vn 0.067645 0.996498 0.049147
vn 0.079521 0.996498 0.025838
vn 0.079521 0.996498 0.025838
vn 0.083614 0.996498 0.000000
vn 0.083614 0.996498 0.000000
vn 0.000000 -1.000000 -0.000000
vn 0.196662 0.978387 -0.063899
vn 0.167291 0.978387 -0.121544
vn -0.000000 1.000000 0.000000
vn 0.121544 0.978387 -0.167290
vn 0.063899 0.978387 -0.196662
vn -0.000000 0.978387 -0.206782
vn -0.063899 0.978387 -0.196662
vn -0.121544 0.978387 -0.167291
vn -0.167291 0.978387 -0.121544
vn -0.196662 0.978387 -0.063899
vn -0.206783 0.978387 0.000000
vn -0.196662 0.978387 0.063899
vn -0.167291 0.978387 0.121543
vn -0.121544 0.978387 0.167290
vn -0.063899 0.978387 0.196662
vn -0.000000 0.978387 0.206783
vn 0.063899 0.978387 0.196662
vn 0.121544 0.978387 0.167291
vn 0.167291 0.978387 0.121544
vn 0.196662 0.978387 0.063899
vn 0.206783 0.978387 0.000000
vn 0.951057 0.000000 -0.309016
vn 0.809017 0.000000 -0.587785
vn 0.809017 0.000000 -0.587785
vn 0.951057 0.000000 -0.309016
vn 0.587785 0.000000 -0.809017
vn 0.587785 0.000000 -0.809017
vn 0.309017 0.000000 -0.951057
vn 0.309017 0.000000 -0.951057
vn -0.000000 0.000000 -1.000000
vn -0.000000 0.000000 -1.000000
vn -0.309017 0.000000 -0.951056
vn -0.309017 0.000000 -0.951056
vn -0.587785 0.000000 -0.809017
vn -0.587785 0.000000 -0.809017
vn -0.809017 0.000000 -0.587785
vn -0.809017 0.000000 -0.587785
vn -0.951057 0.000000 -0.309017
vn -0.951057 0.000000 -0.309017
vn -1.000000 0.000000 0.000000
vn -1.000000 0.000000 0.000000
vn -0.951056 0.000000 0.309017
vn -0.951056 0.000000 0.309017
vn -0.809017 0.000000 0.587785
vn -0.809017 0.000000 0.587785
vn -0.587785 0.000000 0.809017
vn -0.587785 0.000000 0.809017
vn -0.309017 0.000000 0.951057
vn -0.309017 0.000000 0.951057
vn -0.000000 0.000000 1.000000
vn -0.000000 0.000000 1.000000
vn 0.309017 -0.000000 0.951057
vn 0.309017 -0.000000 0.951057
vn 0.587785 -0.000000 0.809017
vn 0.587785 -0.000000 0.809017
vn 0.809017 0.000000 0.587785
vn 0.809017 0.000000 0.587785
vn 0.951056 0.000000 0.309017
vn 0.951057 0.000000 0.309017
vn 1.000000 -0.000000 0.000001
vn 1.000000 -0.000000 0.000001
s 1
g pCylinder6
usemtl initialShadingGroup
f 1/5/1 2/6/2 22/2/3 21/1/4
f 2/69/2 3/70/5 23/71/6 22/72/3
f 3/70/5 4/74/7 24/75/8 23/71/6
f 4/74/7 5/77/9 25/78/10 24/75/8
f 5/77/9 6/80/11 26/81/12 25/78/10
f 6/80/11 7/83/13 27/84/14 26/81/12
f 7/83/13 8/86/15 28/87/16 27/84/14
f 8/39/15 9/40/17 29/36/18 28/35/16
f 9/40/17 10/47/19 30/41/20 29/36/18
f 10/47/19 11/53/21 31/48/22 30/41/20
f 11/53/21 12/61/23 32/54/24 31/48/22
f 12/101/23 13/100/25 33/102/26 32/103/24
f 13/100/25 14/97/27 34/99/28 33/102/26
f 14/97/27 15/94/29 35/96/30 34/99/28
f 15/94/29 16/91/31 36/93/32 35/96/30
f 16/91/31 17/88/33 37/90/34 36/93/32
f 17/88/33 18/85/35 38/89/36 37/90/34
f 18/27/35 19/19/37 39/17/38 38/25/36
f 19/19/37 20/13/39 40/11/40 39/17/38
f 20/13/39 1/5/1 21/1/4 40/11/40
s 2
f 21/1/41 22/2/42 42/3/43 41/4/44
f 22/2/42 23/7/45 43/8/46 42/3/43
f 23/132/45 24/133/47 44/134/48 43/135/46
f 24/133/47 25/136/49 45/137/50 44/134/48
f 25/136/49 26/138/51 46/139/52 45/137/50
f 26/138/51 27/140/53 47/141/54 46/139/52
f 27/45/53 28/35/55 48/38/56 47/46/54
f 28/35/55 29/36/57 49/37/58 48/38/56
f 29/36/57 30/41/59 50/42/60 49/37/58
f 30/41/59 31/48/61 51/49/62 50/42/60
f 31/48/61 32/54/63 52/55/64 51/49/62
f 32/54/63 33/62/65 53/63/66 52/55/64
f 33/142/65 34/143/67 54/144/68 53/145/66
f 34/143/67 35/146/69 55/147/70 54/144/68
f 35/146/69 36/148/71 56/149/72 55/147/70
f 36/148/71 37/150/73 57/151/74 56/149/72
f 37/30/73 38/25/75 58/26/76 57/31/74
f 38/25/75 39/17/77 59/18/78 58/26/76
f 39/17/77 40/11/79 60/12/80 59/18/78
f 40/11/79 21/1/41 41/4/44 60/12/80
s 3
f 41/4/81 42/3/82 62/9/83 61/10/84
f 42/104/82 43/105/85 63/106/86 62/107/83
f 43/105/85 44/108/87 64/109/88 63/106/86
f 44/108/87 45/110/89 65/111/90 64/109/88
f 45/110/89 46/112/91 66/113/92 65/111/90
f 46/112/91 47/114/93 67/115/94 66/113/92
f 47/114/93 48/116/95 68/117/96 67/115/94
f 48/38/95 49/37/97 69/43/98 68/44/96
f 49/37/97 50/42/99 70/50/100 69/43/98
f 50/42/99 51/49/101 71/56/102 70/50/100
f 51/49/101 52/55/103 72/64/104 71/56/102
f 52/118/103 53/119/105 73/120/106 72/121/104
f 53/119/105 54/122/107 74/123/108 73/120/106
f 54/122/107 55/124/109 75/125/110 74/123/108
f 55/124/109 56/126/111 76/127/112 75/125/110
f 56/126/111 57/128/113 77/129/114 76/127/112
f 57/128/113 58/130/115 78/131/116 77/129/114
f 58/26/115 59/18/117 79/24/118 78/29/116
f 59/18/117 60/12/119 80/16/120 79/24/118
f 60/12/119 41/4/81 61/10/84 80/16/120
s 1
f 2/69/2 1/76/1 81/73/121
f 3/70/5 2/69/2 81/73/121
f 4/74/7 3/70/5 81/73/121
f 5/77/9 4/74/7 81/73/121
f 6/80/11 5/77/9 81/73/121
f 7/83/13 6/80/11 81/73/121
f 8/86/15 7/83/13 81/73/121
f 9/92/17 8/86/15 81/73/121
f 10/95/19 9/92/17 81/73/121
f 11/98/21 10/95/19 81/73/121
f 12/101/23 11/98/21 81/73/121
f 13/100/25 12/101/23 81/73/121
f 14/97/27 13/100/25 81/73/121
f 15/94/29 14/97/27 81/73/121
f 16/91/31 15/94/29 81/73/121
f 17/88/33 16/91/31 81/73/121
f 18/85/35 17/88/33 81/73/121
f 19/82/37 18/85/35 81/73/121
f 20/79/39 19/82/37 81/73/121
f 1/76/1 20/79/39 81/73/121
s 4
f 82/15/122 83/14/123 84/22/124
f 83/14/123 85/21/125 84/22/124
f 85/152/125 86/153/126 84/154/124
f 86/153/126 87/157/127 84/154/124
f 87/157/127 88/159/128 84/154/124
f 88/159/128 89/161/129 84/154/124
f 89/60/129 90/52/130 84/58/124
f 90/52/130 91/51/131 84/58/124
f 91/51/131 92/57/132 84/58/124
f 92/57/132 93/65/133 84/58/124
f 93/65/133 94/66/134 84/58/124
f 94/66/134 95/68/135 84/58/124
f 95/163/135 96/164/136 84/165/124
f 96/164/136 97/168/137 84/165/124
f 97/168/137 98/170/138 84/165/124
f 98/170/138 99/172/139 84/165/124
f 99/34/139 100/32/140 84/22/124
f 100/32/140 101/28/141 84/22/124
f 101/28/141 102/23/142 84/22/124
f 102/23/142 82/15/122 84/22/124
s 5
f 61/10/143 62/9/144 83/14/145 82/15/146
f 62/9/144 63/20/147 85/21/148 83/14/145
f 63/155/147 64/156/149 86/153/150 85/152/148
f 64/156/149 65/158/151 87/157/152 86/153/150
f 65/158/151 66/160/153 88/159/154 87/157/152
f 66/160/153 67/162/155 89/161/156 88/159/154
f 67/59/155 68/44/157 90/52/158 89/60/156
f 68/44/157 69/43/159 91/51/160 90/52/158
f 69/43/159 70/50/161 92/57/162 91/51/160
f 70/50/161 71/56/163 93/65/164 92/57/162
f 71/56/163 72/64/165 94/66/166 93/65/164
f 72/64/165 73/67/167 95/68/168 94/66/166
f 73/166/167 74/167/169 96/164/170 95/163/168
f 74/167/169 75/169/171 97/168/172 96/164/170
f 75/169/171 76/171/173 98/170/174 97/168/172
f 76/171/173 77/173/175 99/172/176 98/170/174
f 77/33/175 78/29/177 100/32/178 99/34/176
f 78/29/177 79/24/179 101/28/180 100/32/178
f 79/24/179 80/16/181 102/23/182 101/28/180
f 80/16/181 61/10/143 82/15/146 102/23/182
